<?xml version="1.0"?>
<!-- Generated by SVGo -->
<svg width="258.751mm" height="106.352mm"
     viewBox="0.000 0.000 258.751 106.352"
     xmlns="http://www.w3.org/2000/svg" 
     xmlns:xlink="http://www.w3.org/1999/xlink">
<polygon points="248.751,5.001 249.143,5.016 249.533,5.062 249.918,5.139 250.296,5.245 250.664,5.381 251.020,5.545 251.363,5.737 251.689,5.955 251.998,6.198 252.286,6.465 252.553,6.753 252.796,7.062 253.014,7.388 253.206,7.731 253.370,8.087 253.506,8.455 253.612,8.833 253.689,9.218 253.735,9.608 253.751,10.001 253.751,96.352 253.735,96.744 253.689,97.134 253.612,97.519 253.506,97.897 253.370,98.265 253.206,98.621 253.014,98.964 252.796,99.290 252.553,99.599 252.286,99.887 251.998,100.154 251.689,100.397 251.363,100.615 251.020,100.807 250.664,100.971 250.296,101.107 249.918,101.213 249.533,101.290 249.143,101.336 248.751,101.352 10.000,101.352 9.607,101.336 9.217,101.290 8.832,101.213 8.454,101.107 8.086,100.971 7.730,100.807 7.387,100.615 7.061,100.397 6.752,100.154 6.464,99.887 6.197,99.599 5.954,99.290 5.736,98.964 5.544,98.621 5.380,98.265 5.244,97.897 5.138,97.519 5.061,97.134 5.015,96.744 5.000,96.351 5.000,10.001 5.015,9.608 5.061,9.218 5.138,8.833 5.244,8.455 5.380,8.087 5.544,7.731 5.736,7.388 5.954,7.062 6.197,6.753 6.464,6.465 6.752,6.198 7.061,5.955 7.387,5.737 7.730,5.545 8.086,5.381 8.454,5.245 8.832,5.139 9.217,5.062 9.607,5.016 10.000,5.000" style="fill:none;stroke-width:0.050000mm;stroke:black"/>
<polygon points="248.158,94.683 247.691,94.921 247.320,95.292 247.082,95.759 247.001,96.276 247.082,96.794 247.320,97.261 247.691,97.632 248.158,97.870 248.676,97.951 249.193,97.870 249.660,97.632 250.031,97.261 250.269,96.794 250.351,96.276 250.269,95.759 250.031,95.292 249.660,94.921 249.193,94.683 248.676,94.602" style="fill:none;stroke-width:0.050000mm;stroke:black"/>
<polygon points="168.624,94.683 168.157,94.921 167.787,95.292 167.549,95.759 167.467,96.276 167.549,96.794 167.787,97.261 168.157,97.632 168.624,97.870 169.142,97.951 169.659,97.870 170.126,97.632 170.497,97.261 170.735,96.794 170.817,96.276 170.735,95.759 170.497,95.292 170.126,94.921 169.659,94.683 169.142,94.602" style="fill:none;stroke-width:0.050000mm;stroke:black"/>
<polygon points="89.091,94.683 88.624,94.921 88.253,95.292 88.015,95.759 87.933,96.276 88.015,96.794 88.253,97.261 88.624,97.632 89.091,97.870 89.608,97.951 90.126,97.870 90.593,97.632 90.963,97.261 91.201,96.794 91.283,96.276 91.201,95.759 90.963,95.292 90.593,94.921 90.126,94.683 89.608,94.602" style="fill:none;stroke-width:0.050000mm;stroke:black"/>
<polygon points="9.557,94.683 9.090,94.921 8.719,95.292 8.481,95.759 8.400,96.276 8.481,96.794 8.719,97.261 9.090,97.632 9.557,97.870 10.075,97.951 10.592,97.870 11.059,97.632 11.430,97.261 11.668,96.794 11.750,96.276 11.668,95.759 11.430,95.292 11.059,94.921 10.592,94.683 10.075,94.602" style="fill:none;stroke-width:0.050000mm;stroke:black"/>
<polygon points="248.158,51.583 247.691,51.821 247.320,52.191 247.082,52.658 247.001,53.176 247.082,53.694 247.320,54.161 247.691,54.531 248.158,54.769 248.676,54.851 249.193,54.769 249.660,54.531 250.031,54.161 250.269,53.694 250.351,53.176 250.269,52.658 250.031,52.191 249.660,51.821 249.193,51.583 248.676,51.501" style="fill:none;stroke-width:0.050000mm;stroke:black"/>
<polygon points="9.557,51.583 9.090,51.821 8.719,52.191 8.481,52.658 8.400,53.176 8.481,53.694 8.719,54.161 9.090,54.531 9.557,54.769 10.075,54.851 10.592,54.769 11.059,54.531 11.430,54.161 11.668,53.694 11.750,53.176 11.668,52.658 11.430,52.191 11.059,51.821 10.592,51.583 10.075,51.501" style="fill:none;stroke-width:0.050000mm;stroke:black"/>
<polygon points="89.091,8.482 88.624,8.720 88.253,9.091 88.015,9.558 87.933,10.076 88.015,10.593 88.253,11.060 88.624,11.431 89.091,11.669 89.608,11.751 90.126,11.669 90.593,11.431 90.963,11.060 91.201,10.593 91.283,10.076 91.201,9.558 90.963,9.091 90.593,8.720 90.126,8.482 89.608,8.400" style="fill:none;stroke-width:0.050000mm;stroke:black"/>
<polygon points="168.624,8.482 168.157,8.720 167.787,9.091 167.549,9.558 167.467,10.076 167.549,10.593 167.787,11.060 168.157,11.431 168.624,11.669 169.142,11.751 169.659,11.669 170.126,11.431 170.497,11.060 170.735,10.593 170.817,10.076 170.735,9.558 170.497,9.091 170.126,8.720 169.659,8.482 169.142,8.400" style="fill:none;stroke-width:0.050000mm;stroke:black"/>
<polygon points="248.158,8.482 247.691,8.720 247.320,9.091 247.082,9.558 247.001,10.076 247.082,10.593 247.320,11.060 247.691,11.431 248.158,11.669 248.676,11.751 249.193,11.669 249.660,11.431 250.031,11.060 250.269,10.593 250.351,10.076 250.269,9.558 250.031,9.091 249.660,8.720 249.193,8.482 248.676,8.400" style="fill:none;stroke-width:0.050000mm;stroke:black"/>
<polygon points="9.557,8.482 9.090,8.720 8.719,9.091 8.481,9.558 8.400,10.076 8.481,10.593 8.719,11.060 9.090,11.431 9.557,11.669 10.075,11.751 10.592,11.669 11.059,11.431 11.430,11.060 11.668,10.593 11.750,10.076 11.668,9.558 11.430,9.091 11.059,8.720 10.592,8.482 10.075,8.401" style="fill:none;stroke-width:0.050000mm;stroke:black"/>
</svg>
