<?xml version="1.0"?>
<!-- Generated by SVGo -->
<svg width="258.602mm" height="106.202mm"
     viewBox="0.000 0.000 258.602 106.202"
     xmlns="http://www.w3.org/2000/svg" 
     xmlns:xlink="http://www.w3.org/1999/xlink">
<polygon points="121.801,5.000 121.801,15.001 15.001,15.001 15.001,91.202 243.602,91.202 243.602,15.001 136.801,15.001 136.801,5.001 248.602,5.001 248.994,5.016 249.384,5.062 249.769,5.139 250.147,5.245 250.515,5.381 250.871,5.545 251.214,5.737 251.540,5.955 251.849,6.198 252.137,6.465 252.404,6.753 252.647,7.062 252.865,7.388 253.057,7.731 253.221,8.087 253.357,8.455 253.463,8.833 253.540,9.218 253.586,9.608 253.602,10.001 253.602,96.202 253.586,96.594 253.540,96.984 253.463,97.369 253.357,97.747 253.221,98.115 253.057,98.471 252.865,98.814 252.647,99.140 252.404,99.449 252.137,99.737 251.849,100.004 251.540,100.247 251.214,100.465 250.871,100.657 250.515,100.821 250.147,100.957 249.769,101.063 249.384,101.140 248.994,101.186 248.602,101.202 10.001,101.202 9.608,101.186 9.218,101.140 8.833,101.063 8.455,100.957 8.087,100.821 7.731,100.657 7.388,100.465 7.062,100.247 6.753,100.004 6.465,99.737 6.198,99.449 5.955,99.140 5.737,98.814 5.545,98.471 5.381,98.115 5.245,97.747 5.139,97.369 5.062,96.984 5.016,96.594 5.000,96.201 5.001,10.001 5.016,9.608 5.062,9.218 5.139,8.833 5.245,8.455 5.381,8.087 5.545,7.731 5.737,7.388 5.955,7.062 6.198,6.753 6.465,6.465 6.753,6.198 7.062,5.955 7.388,5.737 7.731,5.545 8.087,5.381 8.455,5.245 8.833,5.139 9.218,5.062 9.608,5.016 10.001,5.000" style="fill:none;stroke-width:0.050000mm;stroke:black"/>
<polygon points="248.061,94.537 247.573,94.786 247.186,95.173 246.937,95.661 246.852,96.202 246.937,96.742 247.186,97.230 247.573,97.617 248.061,97.866 248.602,97.952 249.142,97.866 249.630,97.617 250.017,97.230 250.266,96.742 250.352,96.202 250.266,95.661 250.017,95.173 249.630,94.786 249.142,94.537 248.602,94.452" style="fill:none;stroke-width:0.050000mm;stroke:black"/>
<polygon points="168.527,94.537 168.039,94.786 167.652,95.173 167.403,95.661 167.318,96.202 167.403,96.742 167.652,97.230 168.039,97.617 168.527,97.866 169.068,97.952 169.609,97.866 170.096,97.617 170.484,97.230 170.732,96.742 170.818,96.202 170.732,95.661 170.484,95.173 170.096,94.786 169.609,94.537 169.068,94.452" style="fill:none;stroke-width:0.050000mm;stroke:black"/>
<polygon points="88.993,94.537 88.506,94.786 88.118,95.173 87.870,95.661 87.784,96.202 87.870,96.742 88.118,97.230 88.506,97.617 88.993,97.866 89.534,97.952 90.075,97.866 90.563,97.617 90.950,97.230 91.199,96.742 91.284,96.202 91.199,95.661 90.950,95.173 90.563,94.786 90.075,94.537 89.534,94.452" style="fill:none;stroke-width:0.050000mm;stroke:black"/>
<polygon points="9.460,94.537 8.972,94.786 8.585,95.173 8.336,95.661 8.250,96.202 8.336,96.742 8.585,97.230 8.972,97.617 9.460,97.866 10.000,97.952 10.541,97.866 11.029,97.617 11.416,97.230 11.665,96.742 11.750,96.202 11.665,95.661 11.416,95.173 11.029,94.786 10.541,94.537 10.000,94.452" style="fill:none;stroke-width:0.050000mm;stroke:black"/>
<polygon points="248.061,51.437 247.573,51.685 247.186,52.072 246.937,52.560 246.852,53.101 246.937,53.642 247.186,54.130 247.573,54.517 248.061,54.765 248.602,54.851 249.142,54.765 249.630,54.517 250.017,54.130 250.266,53.642 250.352,53.101 250.266,52.560 250.017,52.072 249.630,51.685 249.142,51.437 248.602,51.351" style="fill:none;stroke-width:0.050000mm;stroke:black"/>
<polygon points="9.460,51.437 8.972,51.685 8.585,52.072 8.336,52.560 8.250,53.101 8.336,53.642 8.585,54.130 8.972,54.517 9.460,54.765 10.000,54.851 10.541,54.765 11.029,54.517 11.416,54.130 11.665,53.642 11.750,53.101 11.665,52.560 11.416,52.072 11.029,51.685 10.541,51.437 10.000,51.351" style="fill:none;stroke-width:0.050000mm;stroke:black"/>
<polygon points="88.993,8.336 88.506,8.585 88.118,8.972 87.870,9.460 87.784,10.001 87.870,10.541 88.118,11.029 88.506,11.416 88.993,11.665 89.534,11.751 90.075,11.665 90.563,11.416 90.950,11.029 91.199,10.541 91.284,10.001 91.199,9.460 90.950,8.972 90.563,8.585 90.075,8.336 89.534,8.251" style="fill:none;stroke-width:0.050000mm;stroke:black"/>
<polygon points="168.527,8.336 168.039,8.585 167.652,8.972 167.403,9.460 167.318,10.001 167.403,10.541 167.652,11.029 168.039,11.416 168.527,11.665 169.068,11.751 169.609,11.665 170.096,11.416 170.484,11.029 170.732,10.541 170.818,10.001 170.732,9.460 170.484,8.972 170.096,8.585 169.609,8.336 169.068,8.251" style="fill:none;stroke-width:0.050000mm;stroke:black"/>
<polygon points="248.061,8.336 247.573,8.585 247.186,8.972 246.937,9.460 246.852,10.001 246.937,10.541 247.186,11.029 247.573,11.416 248.061,11.665 248.602,11.751 249.142,11.665 249.630,11.416 250.017,11.029 250.266,10.541 250.352,10.001 250.266,9.460 250.017,8.972 249.630,8.585 249.142,8.336 248.602,8.251" style="fill:none;stroke-width:0.050000mm;stroke:black"/>
<polygon points="9.460,8.336 8.972,8.585 8.585,8.972 8.336,9.460 8.250,10.001 8.336,10.541 8.585,11.029 8.972,11.416 9.460,11.665 10.000,11.751 10.541,11.665 11.029,11.416 11.416,11.029 11.665,10.541 11.750,10.001 11.665,9.460 11.416,8.972 11.029,8.585 10.541,8.336 10.000,8.251" style="fill:none;stroke-width:0.050000mm;stroke:black"/>
</svg>
