  0
SECTION
  2
HEADER
  9
$ACADVER
  1
AC1009
  9
$FILLMODE
 70
 0
  9
$SPLFRAME
 70
 1
  9
$EXTMIN
 10
0
 20
0
 30
0.0
  9
$EXTMAX
 10
1058.33
 20
1058.33
 30
0.0
  0
ENDSEC
  0
SECTION
  2
TABLES
  0
TABLE
  2
LAYER
 70
1
  0
LAYER
  2
0
 70
     0
 62
     7
  6
CONTINUOUS
  0
ENDTAB
  0
ENDSEC
  0
SECTION
  2
ENTITIES
  0
LINE
  8
0
 62
     0
 10
116.895
 20
96.5659
 30
0.0
 11
116.895
 21
86.5657
 31
0.0
  0
LINE
  8
0
 62
     0
 10
116.895
 20
86.5657
 30
0.0
 11
10.0955
 21
86.5657
 31
0.0
  0
LINE
  8
0
 62
     0
 10
10.0955
 20
86.5657
 30
0.0
 11
10.0955
 21
10.3642
 31
0.0
  0
LINE
  8
0
 62
     0
 10
10.0955
 20
10.3642
 30
0.0
 11
238.697
 21
10.3642
 31
0.0
  0
LINE
  8
0
 62
     0
 10
238.697
 20
10.3642
 30
0.0
 11
238.697
 21
86.5657
 31
0.0
  0
LINE
  8
0
 62
     0
 10
238.697
 20
86.5657
 30
0.0
 11
131.896
 21
86.5657
 31
0.0
  0
LINE
  8
0
 62
     0
 10
131.896
 20
86.5657
 30
0.0
 11
131.896
 21
96.5659
 31
0.0
  0
LINE
  8
0
 62
     0
 10
131.896
 20
96.5659
 30
0.0
 11
243.696
 21
96.5659
 31
0.0
  0
LINE
  8
0
 62
     0
 10
243.696
 20
96.5659
 30
0.0
 11
244.089
 21
96.551
 31
0.0
  0
LINE
  8
0
 62
     0
 10
244.089
 20
96.551
 30
0.0
 11
244.479
 21
96.5041
 31
0.0
  0
LINE
  8
0
 62
     0
 10
244.479
 20
96.5041
 30
0.0
 11
244.864
 21
96.4283
 31
0.0
  0
LINE
  8
0
 62
     0
 10
244.864
 20
96.4283
 30
0.0
 11
245.241
 21
96.3221
 31
0.0
  0
LINE
  8
0
 62
     0
 10
245.241
 20
96.3221
 30
0.0
 11
245.609
 21
96.1856
 31
0.0
  0
LINE
  8
0
 62
     0
 10
245.609
 20
96.1856
 30
0.0
 11
245.966
 21
96.0219
 31
0.0
  0
LINE
  8
0
 62
     0
 10
245.966
 20
96.0219
 30
0.0
 11
246.309
 21
95.8303
 31
0.0
  0
LINE
  8
0
 62
     0
 10
246.309
 20
95.8303
 30
0.0
 11
246.634
 21
95.6109
 31
0.0
  0
LINE
  8
0
 62
     0
 10
246.634
 20
95.6109
 30
0.0
 11
246.943
 21
95.3685
 31
0.0
  0
LINE
  8
0
 62
     0
 10
246.943
 20
95.3685
 30
0.0
 11
247.231
 21
95.1011
 31
0.0
  0
LINE
  8
0
 62
     0
 10
247.231
 20
95.1011
 30
0.0
 11
247.498
 21
94.8133
 31
0.0
  0
LINE
  8
0
 62
     0
 10
247.498
 20
94.8133
 30
0.0
 11
247.741
 21
94.5046
 31
0.0
  0
LINE
  8
0
 62
     0
 10
247.741
 20
94.5046
 30
0.0
 11
247.96
 21
94.1793
 31
0.0
  0
LINE
  8
0
 62
     0
 10
247.96
 20
94.1793
 30
0.0
 11
248.152
 21
93.8361
 31
0.0
  0
LINE
  8
0
 62
     0
 10
248.152
 20
93.8361
 30
0.0
 11
248.316
 21
93.4791
 31
0.0
  0
LINE
  8
0
 62
     0
 10
248.316
 20
93.4791
 30
0.0
 11
248.452
 21
93.1115
 31
0.0
  0
LINE
  8
0
 62
     0
 10
248.452
 20
93.1115
 30
0.0
 11
248.558
 21
92.7336
 31
0.0
  0
LINE
  8
0
 62
     0
 10
248.558
 20
92.7336
 30
0.0
 11
248.634
 21
92.3491
 31
0.0
  0
LINE
  8
0
 62
     0
 10
248.634
 20
92.3491
 30
0.0
 11
248.681
 21
91.9593
 31
0.0
  0
LINE
  8
0
 62
     0
 10
248.681
 20
91.9593
 30
0.0
 11
248.696
 21
91.5652
 31
0.0
  0
LINE
  8
0
 62
     0
 10
248.696
 20
91.5652
 30
0.0
 11
248.696
 21
5.36469
 31
0.0
  0
LINE
  8
0
 62
     0
 10
248.696
 20
5.36469
 30
0.0
 11
248.681
 21
4.97198
 31
0.0
  0
LINE
  8
0
 62
     0
 10
248.681
 20
4.97198
 30
0.0
 11
248.634
 21
4.58198
 31
0.0
  0
LINE
  8
0
 62
     0
 10
248.634
 20
4.58198
 30
0.0
 11
248.558
 21
4.19749
 31
0.0
  0
LINE
  8
0
 62
     0
 10
248.558
 20
4.19749
 30
0.0
 11
248.452
 21
3.81991
 31
0.0
  0
LINE
  8
0
 62
     0
 10
248.452
 20
3.81991
 30
0.0
 11
248.316
 21
3.45199
 31
0.0
  0
LINE
  8
0
 62
     0
 10
248.316
 20
3.45199
 30
0.0
 11
248.152
 21
3.09507
 31
0.0
  0
LINE
  8
0
 62
     0
 10
248.152
 20
3.09507
 30
0.0
 11
247.96
 21
2.75194
 31
0.0
  0
LINE
  8
0
 62
     0
 10
247.96
 20
2.75194
 30
0.0
 11
247.741
 21
2.42673
 31
0.0
  0
LINE
  8
0
 62
     0
 10
247.741
 20
2.42673
 30
0.0
 11
247.498
 21
2.11805
 31
0.0
  0
LINE
  8
0
 62
     0
 10
247.498
 20
2.11805
 30
0.0
 11
247.231
 21
1.83003
 31
0.0
  0
LINE
  8
0
 62
     0
 10
247.231
 20
1.83003
 30
0.0
 11
246.943
 21
1.5627
 31
0.0
  0
LINE
  8
0
 62
     0
 10
246.943
 20
1.5627
 30
0.0
 11
246.634
 21
1.32016
 31
0.0
  0
LINE
  8
0
 62
     0
 10
246.634
 20
1.32016
 30
0.0
 11
246.309
 21
1.10105
 31
0.0
  0
LINE
  8
0
 62
     0
 10
246.309
 20
1.10105
 30
0.0
 11
245.966
 21
0.909507
 31
0.0
  0
LINE
  8
0
 62
     0
 10
245.966
 20
0.909507
 30
0.0
 11
245.609
 21
0.745518
 31
0.0
  0
LINE
  8
0
 62
     0
 10
245.609
 20
0.745518
 30
0.0
 11
245.241
 21
0.609092
 31
0.0
  0
LINE
  8
0
 62
     0
 10
245.241
 20
0.609092
 30
0.0
 11
244.864
 21
0.502984
 31
0.0
  0
LINE
  8
0
 62
     0
 10
244.864
 20
0.502984
 30
0.0
 11
244.479
 21
0.427193
 31
0.0
  0
LINE
  8
0
 62
     0
 10
244.479
 20
0.427193
 30
0.0
 11
244.089
 21
0.38034
 31
0.0
  0
LINE
  8
0
 62
     0
 10
244.089
 20
0.38034
 30
0.0
 11
243.696
 21
0.365181
 31
0.0
  0
LINE
  8
0
 62
     0
 10
243.696
 20
0.365181
 30
0.0
 11
5.09598
 21
0.365181
 31
0.0
  0
LINE
  8
0
 62
     0
 10
5.09598
 20
0.365181
 30
0.0
 11
4.70186
 21
0.38034
 31
0.0
  0
LINE
  8
0
 62
     0
 10
4.70186
 20
0.38034
 30
0.0
 11
4.3119
 21
0.427193
 31
0.0
  0
LINE
  8
0
 62
     0
 10
4.3119
 20
0.427193
 30
0.0
 11
3.9274
 21
0.502984
 31
0.0
  0
LINE
  8
0
 62
     0
 10
3.9274
 20
0.502984
 30
0.0
 11
3.54983
 21
0.609092
 31
0.0
  0
LINE
  8
0
 62
     0
 10
3.54983
 20
0.609092
 30
0.0
 11
3.18189
 21
0.745518
 31
0.0
  0
LINE
  8
0
 62
     0
 10
3.18189
 20
0.745518
 30
0.0
 11
2.82498
 21
0.909507
 31
0.0
  0
LINE
  8
0
 62
     0
 10
2.82498
 20
0.909507
 30
0.0
 11
2.48185
 21
1.10105
 31
0.0
  0
LINE
  8
0
 62
     0
 10
2.48185
 20
1.10105
 30
0.0
 11
2.15663
 21
1.32016
 31
0.0
  0
LINE
  8
0
 62
     0
 10
2.15663
 20
1.32016
 30
0.0
 11
1.84795
 21
1.5627
 31
0.0
  0
LINE
  8
0
 62
     0
 10
1.84795
 20
1.5627
 30
0.0
 11
1.55994
 21
1.83003
 31
0.0
  0
LINE
  8
0
 62
     0
 10
1.55994
 20
1.83003
 30
0.0
 11
1.2926
 21
2.11805
 31
0.0
  0
LINE
  8
0
 62
     0
 10
1.2926
 20
2.11805
 30
0.0
 11
1.05006
 21
2.42673
 31
0.0
  0
LINE
  8
0
 62
     0
 10
1.05006
 20
2.42673
 30
0.0
 11
0.830957
 21
2.75194
 31
0.0
  0
LINE
  8
0
 62
     0
 10
0.830957
 20
2.75194
 30
0.0
 11
0.63941
 21
3.09507
 31
0.0
  0
LINE
  8
0
 62
     0
 10
0.63941
 20
3.09507
 30
0.0
 11
0.475424
 21
3.45199
 31
0.0
  0
LINE
  8
0
 62
     0
 10
0.475424
 20
3.45199
 30
0.0
 11
0.338998
 21
3.81991
 31
0.0
  0
LINE
  8
0
 62
     0
 10
0.338998
 20
3.81991
 30
0.0
 11
0.232888
 21
4.19749
 31
0.0
  0
LINE
  8
0
 62
     0
 10
0.232888
 20
4.19749
 30
0.0
 11
0.157097
 21
4.58198
 31
0.0
  0
LINE
  8
0
 62
     0
 10
0.157097
 20
4.58198
 30
0.0
 11
0.110243
 21
4.97198
 31
0.0
  0
LINE
  8
0
 62
     0
 10
0.110243
 20
4.97198
 30
0.0
 11
0.0950846
 21
5.36607
 31
0.0
  0
LINE
  8
0
 62
     0
 10
0.0950846
 20
5.36607
 30
0.0
 11
0.0950846
 21
91.5652
 31
0.0
  0
LINE
  8
0
 62
     0
 10
0.0950846
 20
91.5652
 30
0.0
 11
0.110243
 21
91.9593
 31
0.0
  0
LINE
  8
0
 62
     0
 10
0.110243
 20
91.9593
 30
0.0
 11
0.157097
 21
92.3491
 31
0.0
  0
LINE
  8
0
 62
     0
 10
0.157097
 20
92.3491
 30
0.0
 11
0.232888
 21
92.7336
 31
0.0
  0
LINE
  8
0
 62
     0
 10
0.232888
 20
92.7336
 30
0.0
 11
0.338998
 21
93.1115
 31
0.0
  0
LINE
  8
0
 62
     0
 10
0.338998
 20
93.1115
 30
0.0
 11
0.475424
 21
93.4791
 31
0.0
  0
LINE
  8
0
 62
     0
 10
0.475424
 20
93.4791
 30
0.0
 11
0.63941
 21
93.8361
 31
0.0
  0
LINE
  8
0
 62
     0
 10
0.63941
 20
93.8361
 30
0.0
 11
0.830957
 21
94.1793
 31
0.0
  0
LINE
  8
0
 62
     0
 10
0.830957
 20
94.1793
 30
0.0
 11
1.05006
 21
94.5046
 31
0.0
  0
LINE
  8
0
 62
     0
 10
1.05006
 20
94.5046
 30
0.0
 11
1.2926
 21
94.8133
 31
0.0
  0
LINE
  8
0
 62
     0
 10
1.2926
 20
94.8133
 30
0.0
 11
1.55994
 21
95.1011
 31
0.0
  0
LINE
  8
0
 62
     0
 10
1.55994
 20
95.1011
 30
0.0
 11
1.84795
 21
95.3685
 31
0.0
  0
LINE
  8
0
 62
     0
 10
1.84795
 20
95.3685
 30
0.0
 11
2.15663
 21
95.6109
 31
0.0
  0
LINE
  8
0
 62
     0
 10
2.15663
 20
95.6109
 30
0.0
 11
2.48185
 21
95.8303
 31
0.0
  0
LINE
  8
0
 62
     0
 10
2.48185
 20
95.8303
 30
0.0
 11
2.82498
 21
96.0219
 31
0.0
  0
LINE
  8
0
 62
     0
 10
2.82498
 20
96.0219
 30
0.0
 11
3.18189
 21
96.1856
 31
0.0
  0
LINE
  8
0
 62
     0
 10
3.18189
 20
96.1856
 30
0.0
 11
3.54983
 21
96.3221
 31
0.0
  0
LINE
  8
0
 62
     0
 10
3.54983
 20
96.3221
 30
0.0
 11
3.9274
 21
96.4283
 31
0.0
  0
LINE
  8
0
 62
     0
 10
3.9274
 20
96.4283
 30
0.0
 11
4.3119
 21
96.5041
 31
0.0
  0
LINE
  8
0
 62
     0
 10
4.3119
 20
96.5041
 30
0.0
 11
4.70186
 21
96.551
 31
0.0
  0
LINE
  8
0
 62
     0
 10
4.70186
 20
96.551
 30
0.0
 11
5.09598
 21
96.5659
 31
0.0
  0
LINE
  8
0
 62
     0
 10
5.09598
 20
96.5659
 30
0.0
 11
116.895
 21
96.5659
 31
0.0
  0
LINE
  8
0
 62
     0
 10
243.155
 20
7.02938
 30
0.0
 11
242.667
 21
6.77997
 31
0.0
  0
LINE
  8
0
 62
     0
 10
242.667
 20
6.77997
 30
0.0
 11
242.281
 21
6.3941
 31
0.0
  0
LINE
  8
0
 62
     0
 10
242.281
 20
6.3941
 30
0.0
 11
242.032
 21
5.90628
 31
0.0
  0
LINE
  8
0
 62
     0
 10
242.032
 20
5.90628
 30
0.0
 11
241.946
 21
5.36469
 31
0.0
  0
LINE
  8
0
 62
     0
 10
241.946
 20
5.36469
 30
0.0
 11
242.032
 21
4.82452
 31
0.0
  0
LINE
  8
0
 62
     0
 10
242.032
 20
4.82452
 30
0.0
 11
242.281
 21
4.3367
 31
0.0
  0
LINE
  8
0
 62
     0
 10
242.281
 20
4.3367
 30
0.0
 11
242.667
 21
3.94945
 31
0.0
  0
LINE
  8
0
 62
     0
 10
242.667
 20
3.94945
 30
0.0
 11
243.155
 21
3.70004
 31
0.0
  0
LINE
  8
0
 62
     0
 10
243.155
 20
3.70004
 30
0.0
 11
243.696
 21
3.6146
 31
0.0
  0
LINE
  8
0
 62
     0
 10
243.696
 20
3.6146
 30
0.0
 11
244.237
 21
3.70004
 31
0.0
  0
LINE
  8
0
 62
     0
 10
244.237
 20
3.70004
 30
0.0
 11
244.724
 21
3.94945
 31
0.0
  0
LINE
  8
0
 62
     0
 10
244.724
 20
3.94945
 30
0.0
 11
245.112
 21
4.3367
 31
0.0
  0
LINE
  8
0
 62
     0
 10
245.112
 20
4.3367
 30
0.0
 11
245.361
 21
4.82452
 31
0.0
  0
LINE
  8
0
 62
     0
 10
245.361
 20
4.82452
 30
0.0
 11
245.447
 21
5.36469
 31
0.0
  0
LINE
  8
0
 62
     0
 10
245.447
 20
5.36469
 30
0.0
 11
245.361
 21
5.90628
 31
0.0
  0
LINE
  8
0
 62
     0
 10
245.361
 20
5.90628
 30
0.0
 11
245.112
 21
6.3941
 31
0.0
  0
LINE
  8
0
 62
     0
 10
245.112
 20
6.3941
 30
0.0
 11
244.724
 21
6.77997
 31
0.0
  0
LINE
  8
0
 62
     0
 10
244.724
 20
6.77997
 30
0.0
 11
244.237
 21
7.02938
 31
0.0
  0
LINE
  8
0
 62
     0
 10
244.237
 20
7.02938
 30
0.0
 11
243.696
 21
7.11482
 31
0.0
  0
LINE
  8
0
 62
     0
 10
243.696
 20
7.11482
 30
0.0
 11
243.155
 21
7.02938
 31
0.0
  0
LINE
  8
0
 62
     0
 10
163.622
 20
7.02938
 30
0.0
 11
163.134
 21
6.77997
 31
0.0
  0
LINE
  8
0
 62
     0
 10
163.134
 20
6.77997
 30
0.0
 11
162.746
 21
6.3941
 31
0.0
  0
LINE
  8
0
 62
     0
 10
162.746
 20
6.3941
 30
0.0
 11
162.497
 21
5.90628
 31
0.0
  0
LINE
  8
0
 62
     0
 10
162.497
 20
5.90628
 30
0.0
 11
162.413
 21
5.36469
 31
0.0
  0
LINE
  8
0
 62
     0
 10
162.413
 20
5.36469
 30
0.0
 11
162.497
 21
4.82452
 31
0.0
  0
LINE
  8
0
 62
     0
 10
162.497
 20
4.82452
 30
0.0
 11
162.746
 21
4.3367
 31
0.0
  0
LINE
  8
0
 62
     0
 10
162.746
 20
4.3367
 30
0.0
 11
163.134
 21
3.94945
 31
0.0
  0
LINE
  8
0
 62
     0
 10
163.134
 20
3.94945
 30
0.0
 11
163.622
 21
3.70004
 31
0.0
  0
LINE
  8
0
 62
     0
 10
163.622
 20
3.70004
 30
0.0
 11
164.163
 21
3.6146
 31
0.0
  0
LINE
  8
0
 62
     0
 10
164.163
 20
3.6146
 30
0.0
 11
164.703
 21
3.70004
 31
0.0
  0
LINE
  8
0
 62
     0
 10
164.703
 20
3.70004
 30
0.0
 11
165.191
 21
3.94945
 31
0.0
  0
LINE
  8
0
 62
     0
 10
165.191
 20
3.94945
 30
0.0
 11
165.578
 21
4.3367
 31
0.0
  0
LINE
  8
0
 62
     0
 10
165.578
 20
4.3367
 30
0.0
 11
165.826
 21
4.82452
 31
0.0
  0
LINE
  8
0
 62
     0
 10
165.826
 20
4.82452
 30
0.0
 11
165.913
 21
5.36469
 31
0.0
  0
LINE
  8
0
 62
     0
 10
165.913
 20
5.36469
 30
0.0
 11
165.826
 21
5.90628
 31
0.0
  0
LINE
  8
0
 62
     0
 10
165.826
 20
5.90628
 30
0.0
 11
165.578
 21
6.3941
 31
0.0
  0
LINE
  8
0
 62
     0
 10
165.578
 20
6.3941
 30
0.0
 11
165.191
 21
6.77997
 31
0.0
  0
LINE
  8
0
 62
     0
 10
165.191
 20
6.77997
 30
0.0
 11
164.703
 21
7.02938
 31
0.0
  0
LINE
  8
0
 62
     0
 10
164.703
 20
7.02938
 30
0.0
 11
164.163
 21
7.11482
 31
0.0
  0
LINE
  8
0
 62
     0
 10
164.163
 20
7.11482
 30
0.0
 11
163.622
 21
7.02938
 31
0.0
  0
LINE
  8
0
 62
     0
 10
84.0878
 20
7.02938
 30
0.0
 11
83.6002
 21
6.77997
 31
0.0
  0
LINE
  8
0
 62
     0
 10
83.6002
 20
6.77997
 30
0.0
 11
83.2129
 21
6.3941
 31
0.0
  0
LINE
  8
0
 62
     0
 10
83.2129
 20
6.3941
 30
0.0
 11
82.9649
 21
5.90628
 31
0.0
  0
LINE
  8
0
 62
     0
 10
82.9649
 20
5.90628
 30
0.0
 11
82.8781
 21
5.36469
 31
0.0
  0
LINE
  8
0
 62
     0
 10
82.8781
 20
5.36469
 30
0.0
 11
82.9649
 21
4.82452
 31
0.0
  0
LINE
  8
0
 62
     0
 10
82.9649
 20
4.82452
 30
0.0
 11
83.2129
 21
4.3367
 31
0.0
  0
LINE
  8
0
 62
     0
 10
83.2129
 20
4.3367
 30
0.0
 11
83.6002
 21
3.94945
 31
0.0
  0
LINE
  8
0
 62
     0
 10
83.6002
 20
3.94945
 30
0.0
 11
84.0878
 21
3.70004
 31
0.0
  0
LINE
  8
0
 62
     0
 10
84.0878
 20
3.70004
 30
0.0
 11
84.6282
 21
3.6146
 31
0.0
  0
LINE
  8
0
 62
     0
 10
84.6282
 20
3.6146
 30
0.0
 11
85.1697
 21
3.70004
 31
0.0
  0
LINE
  8
0
 62
     0
 10
85.1697
 20
3.70004
 30
0.0
 11
85.6576
 21
3.94945
 31
0.0
  0
LINE
  8
0
 62
     0
 10
85.6576
 20
3.94945
 30
0.0
 11
86.0446
 21
4.3367
 31
0.0
  0
LINE
  8
0
 62
     0
 10
86.0446
 20
4.3367
 30
0.0
 11
86.294
 21
4.82452
 31
0.0
  0
LINE
  8
0
 62
     0
 10
86.294
 20
4.82452
 30
0.0
 11
86.3783
 21
5.36469
 31
0.0
  0
LINE
  8
0
 62
     0
 10
86.3783
 20
5.36469
 30
0.0
 11
86.294
 21
5.90628
 31
0.0
  0
LINE
  8
0
 62
     0
 10
86.294
 20
5.90628
 30
0.0
 11
86.0446
 21
6.3941
 31
0.0
  0
LINE
  8
0
 62
     0
 10
86.0446
 20
6.3941
 30
0.0
 11
85.6576
 21
6.77997
 31
0.0
  0
LINE
  8
0
 62
     0
 10
85.6576
 20
6.77997
 30
0.0
 11
85.1697
 21
7.02938
 31
0.0
  0
LINE
  8
0
 62
     0
 10
85.1697
 20
7.02938
 30
0.0
 11
84.6282
 21
7.11482
 31
0.0
  0
LINE
  8
0
 62
     0
 10
84.6282
 20
7.11482
 30
0.0
 11
84.0878
 21
7.02938
 31
0.0
  0
LINE
  8
0
 62
     0
 10
4.55443
 20
7.02938
 30
0.0
 11
4.06658
 21
6.77997
 31
0.0
  0
LINE
  8
0
 62
     0
 10
4.06658
 20
6.77997
 30
0.0
 11
3.67937
 21
6.3941
 31
0.0
  0
LINE
  8
0
 62
     0
 10
3.67937
 20
6.3941
 30
0.0
 11
3.42994
 21
5.90628
 31
0.0
  0
LINE
  8
0
 62
     0
 10
3.42994
 20
5.90628
 30
0.0
 11
3.3445
 21
5.36469
 31
0.0
  0
LINE
  8
0
 62
     0
 10
3.3445
 20
5.36469
 30
0.0
 11
3.42994
 21
4.82452
 31
0.0
  0
LINE
  8
0
 62
     0
 10
3.42994
 20
4.82452
 30
0.0
 11
3.67937
 21
4.3367
 31
0.0
  0
LINE
  8
0
 62
     0
 10
3.67937
 20
4.3367
 30
0.0
 11
4.06658
 21
3.94945
 31
0.0
  0
LINE
  8
0
 62
     0
 10
4.06658
 20
3.94945
 30
0.0
 11
4.55443
 21
3.70004
 31
0.0
  0
LINE
  8
0
 62
     0
 10
4.55443
 20
3.70004
 30
0.0
 11
5.0946
 21
3.6146
 31
0.0
  0
LINE
  8
0
 62
     0
 10
5.0946
 20
3.6146
 30
0.0
 11
5.63619
 21
3.70004
 31
0.0
  0
LINE
  8
0
 62
     0
 10
5.63619
 20
3.70004
 30
0.0
 11
6.12401
 21
3.94945
 31
0.0
  0
LINE
  8
0
 62
     0
 10
6.12401
 20
3.94945
 30
0.0
 11
6.50984
 21
4.3367
 31
0.0
  0
LINE
  8
0
 62
     0
 10
6.50984
 20
4.3367
 30
0.0
 11
6.75929
 21
4.82452
 31
0.0
  0
LINE
  8
0
 62
     0
 10
6.75929
 20
4.82452
 30
0.0
 11
6.8447
 21
5.36469
 31
0.0
  0
LINE
  8
0
 62
     0
 10
6.8447
 20
5.36469
 30
0.0
 11
6.75929
 21
5.90628
 31
0.0
  0
LINE
  8
0
 62
     0
 10
6.75929
 20
5.90628
 30
0.0
 11
6.50984
 21
6.3941
 31
0.0
  0
LINE
  8
0
 62
     0
 10
6.50984
 20
6.3941
 30
0.0
 11
6.12401
 21
6.77997
 31
0.0
  0
LINE
  8
0
 62
     0
 10
6.12401
 20
6.77997
 30
0.0
 11
5.63619
 21
7.02938
 31
0.0
  0
LINE
  8
0
 62
     0
 10
5.63619
 20
7.02938
 30
0.0
 11
5.0946
 21
7.11482
 31
0.0
  0
LINE
  8
0
 62
     0
 10
5.0946
 20
7.11482
 30
0.0
 11
4.55443
 21
7.02938
 31
0.0
  0
LINE
  8
0
 62
     0
 10
243.155
 20
50.1304
 30
0.0
 11
242.667
 21
49.8821
 31
0.0
  0
LINE
  8
0
 62
     0
 10
242.667
 20
49.8821
 30
0.0
 11
242.281
 21
49.4951
 31
0.0
  0
LINE
  8
0
 62
     0
 10
242.281
 20
49.4951
 30
0.0
 11
242.032
 21
49.0072
 31
0.0
  0
LINE
  8
0
 62
     0
 10
242.032
 20
49.0072
 30
0.0
 11
241.946
 21
48.4657
 31
0.0
  0
LINE
  8
0
 62
     0
 10
241.946
 20
48.4657
 30
0.0
 11
242.032
 21
47.9242
 31
0.0
  0
LINE
  8
0
 62
     0
 10
242.032
 20
47.9242
 30
0.0
 11
242.281
 21
47.4363
 31
0.0
  0
LINE
  8
0
 62
     0
 10
242.281
 20
47.4363
 30
0.0
 11
242.667
 21
47.0489
 31
0.0
  0
LINE
  8
0
 62
     0
 10
242.667
 20
47.0489
 30
0.0
 11
243.155
 21
46.8023
 31
0.0
  0
LINE
  8
0
 62
     0
 10
243.155
 20
46.8023
 30
0.0
 11
243.696
 21
46.7155
 31
0.0
  0
LINE
  8
0
 62
     0
 10
243.696
 20
46.7155
 30
0.0
 11
244.237
 21
46.8023
 31
0.0
  0
LINE
  8
0
 62
     0
 10
244.237
 20
46.8023
 30
0.0
 11
244.724
 21
47.0489
 31
0.0
  0
LINE
  8
0
 62
     0
 10
244.724
 20
47.0489
 30
0.0
 11
245.112
 21
47.4363
 31
0.0
  0
LINE
  8
0
 62
     0
 10
245.112
 20
47.4363
 30
0.0
 11
245.361
 21
47.9242
 31
0.0
  0
LINE
  8
0
 62
     0
 10
245.361
 20
47.9242
 30
0.0
 11
245.447
 21
48.4657
 31
0.0
  0
LINE
  8
0
 62
     0
 10
245.447
 20
48.4657
 30
0.0
 11
245.361
 21
49.0072
 31
0.0
  0
LINE
  8
0
 62
     0
 10
245.361
 20
49.0072
 30
0.0
 11
245.112
 21
49.4951
 31
0.0
  0
LINE
  8
0
 62
     0
 10
245.112
 20
49.4951
 30
0.0
 11
244.724
 21
49.8821
 31
0.0
  0
LINE
  8
0
 62
     0
 10
244.724
 20
49.8821
 30
0.0
 11
244.237
 21
50.1304
 31
0.0
  0
LINE
  8
0
 62
     0
 10
244.237
 20
50.1304
 30
0.0
 11
243.696
 21
50.2158
 31
0.0
  0
LINE
  8
0
 62
     0
 10
243.696
 20
50.2158
 30
0.0
 11
243.155
 21
50.1304
 31
0.0
  0
LINE
  8
0
 62
     0
 10
4.55443
 20
50.1304
 30
0.0
 11
4.06658
 21
49.8821
 31
0.0
  0
LINE
  8
0
 62
     0
 10
4.06658
 20
49.8821
 30
0.0
 11
3.67937
 21
49.4951
 31
0.0
  0
LINE
  8
0
 62
     0
 10
3.67937
 20
49.4951
 30
0.0
 11
3.42994
 21
49.0072
 31
0.0
  0
LINE
  8
0
 62
     0
 10
3.42994
 20
49.0072
 30
0.0
 11
3.3445
 21
48.4657
 31
0.0
  0
LINE
  8
0
 62
     0
 10
3.3445
 20
48.4657
 30
0.0
 11
3.42994
 21
47.9242
 31
0.0
  0
LINE
  8
0
 62
     0
 10
3.42994
 20
47.9242
 30
0.0
 11
3.67937
 21
47.4363
 31
0.0
  0
LINE
  8
0
 62
     0
 10
3.67937
 20
47.4363
 30
0.0
 11
4.06658
 21
47.0489
 31
0.0
  0
LINE
  8
0
 62
     0
 10
4.06658
 20
47.0489
 30
0.0
 11
4.55443
 21
46.8023
 31
0.0
  0
LINE
  8
0
 62
     0
 10
4.55443
 20
46.8023
 30
0.0
 11
5.0946
 21
46.7155
 31
0.0
  0
LINE
  8
0
 62
     0
 10
5.0946
 20
46.7155
 30
0.0
 11
5.63619
 21
46.8023
 31
0.0
  0
LINE
  8
0
 62
     0
 10
5.63619
 20
46.8023
 30
0.0
 11
6.12401
 21
47.0489
 31
0.0
  0
LINE
  8
0
 62
     0
 10
6.12401
 20
47.0489
 30
0.0
 11
6.50984
 21
47.4363
 31
0.0
  0
LINE
  8
0
 62
     0
 10
6.50984
 20
47.4363
 30
0.0
 11
6.75929
 21
47.9242
 31
0.0
  0
LINE
  8
0
 62
     0
 10
6.75929
 20
47.9242
 30
0.0
 11
6.8447
 21
48.4657
 31
0.0
  0
LINE
  8
0
 62
     0
 10
6.8447
 20
48.4657
 30
0.0
 11
6.75929
 21
49.0072
 31
0.0
  0
LINE
  8
0
 62
     0
 10
6.75929
 20
49.0072
 30
0.0
 11
6.50984
 21
49.4951
 31
0.0
  0
LINE
  8
0
 62
     0
 10
6.50984
 20
49.4951
 30
0.0
 11
6.12401
 21
49.8821
 31
0.0
  0
LINE
  8
0
 62
     0
 10
6.12401
 20
49.8821
 30
0.0
 11
5.63619
 21
50.1304
 31
0.0
  0
LINE
  8
0
 62
     0
 10
5.63619
 20
50.1304
 30
0.0
 11
5.0946
 21
50.2158
 31
0.0
  0
LINE
  8
0
 62
     0
 10
5.0946
 20
50.2158
 30
0.0
 11
4.55443
 21
50.1304
 31
0.0
  0
LINE
  8
0
 62
     0
 10
84.0878
 20
93.2311
 30
0.0
 11
83.6002
 21
92.9816
 31
0.0
  0
LINE
  8
0
 62
     0
 10
83.6002
 20
92.9816
 30
0.0
 11
83.2129
 21
92.5946
 31
0.0
  0
LINE
  8
0
 62
     0
 10
83.2129
 20
92.5946
 30
0.0
 11
82.9649
 21
92.1067
 31
0.0
  0
LINE
  8
0
 62
     0
 10
82.9649
 20
92.1067
 30
0.0
 11
82.8781
 21
91.5652
 31
0.0
  0
LINE
  8
0
 62
     0
 10
82.8781
 20
91.5652
 30
0.0
 11
82.9649
 21
91.0248
 31
0.0
  0
LINE
  8
0
 62
     0
 10
82.9649
 20
91.0248
 30
0.0
 11
83.2129
 21
90.5372
 31
0.0
  0
LINE
  8
0
 62
     0
 10
83.2129
 20
90.5372
 30
0.0
 11
83.6002
 21
90.1513
 31
0.0
  0
LINE
  8
0
 62
     0
 10
83.6002
 20
90.1513
 30
0.0
 11
84.0878
 21
89.9019
 31
0.0
  0
LINE
  8
0
 62
     0
 10
84.0878
 20
89.9019
 30
0.0
 11
84.6282
 21
89.8151
 31
0.0
  0
LINE
  8
0
 62
     0
 10
84.6282
 20
89.8151
 30
0.0
 11
85.1697
 21
89.9019
 31
0.0
  0
LINE
  8
0
 62
     0
 10
85.1697
 20
89.9019
 30
0.0
 11
85.6576
 21
90.1513
 31
0.0
  0
LINE
  8
0
 62
     0
 10
85.6576
 20
90.1513
 30
0.0
 11
86.0446
 21
90.5372
 31
0.0
  0
LINE
  8
0
 62
     0
 10
86.0446
 20
90.5372
 30
0.0
 11
86.294
 21
91.0248
 31
0.0
  0
LINE
  8
0
 62
     0
 10
86.294
 20
91.0248
 30
0.0
 11
86.3783
 21
91.5652
 31
0.0
  0
LINE
  8
0
 62
     0
 10
86.3783
 20
91.5652
 30
0.0
 11
86.294
 21
92.1067
 31
0.0
  0
LINE
  8
0
 62
     0
 10
86.294
 20
92.1067
 30
0.0
 11
86.0446
 21
92.5946
 31
0.0
  0
LINE
  8
0
 62
     0
 10
86.0446
 20
92.5946
 30
0.0
 11
85.6576
 21
92.9816
 31
0.0
  0
LINE
  8
0
 62
     0
 10
85.6576
 20
92.9816
 30
0.0
 11
85.1697
 21
93.2311
 31
0.0
  0
LINE
  8
0
 62
     0
 10
85.1697
 20
93.2311
 30
0.0
 11
84.6282
 21
93.3154
 31
0.0
  0
LINE
  8
0
 62
     0
 10
84.6282
 20
93.3154
 30
0.0
 11
84.0878
 21
93.2311
 31
0.0
  0
LINE
  8
0
 62
     0
 10
163.622
 20
93.2311
 30
0.0
 11
163.134
 21
92.9816
 31
0.0
  0
LINE
  8
0
 62
     0
 10
163.134
 20
92.9816
 30
0.0
 11
162.746
 21
92.5946
 31
0.0
  0
LINE
  8
0
 62
     0
 10
162.746
 20
92.5946
 30
0.0
 11
162.497
 21
92.1067
 31
0.0
  0
LINE
  8
0
 62
     0
 10
162.497
 20
92.1067
 30
0.0
 11
162.413
 21
91.5652
 31
0.0
  0
LINE
  8
0
 62
     0
 10
162.413
 20
91.5652
 30
0.0
 11
162.497
 21
91.0248
 31
0.0
  0
LINE
  8
0
 62
     0
 10
162.497
 20
91.0248
 30
0.0
 11
162.746
 21
90.5372
 31
0.0
  0
LINE
  8
0
 62
     0
 10
162.746
 20
90.5372
 30
0.0
 11
163.134
 21
90.1513
 31
0.0
  0
LINE
  8
0
 62
     0
 10
163.134
 20
90.1513
 30
0.0
 11
163.622
 21
89.9019
 31
0.0
  0
LINE
  8
0
 62
     0
 10
163.622
 20
89.9019
 30
0.0
 11
164.163
 21
89.8151
 31
0.0
  0
LINE
  8
0
 62
     0
 10
164.163
 20
89.8151
 30
0.0
 11
164.703
 21
89.9019
 31
0.0
  0
LINE
  8
0
 62
     0
 10
164.703
 20
89.9019
 30
0.0
 11
165.191
 21
90.1513
 31
0.0
  0
LINE
  8
0
 62
     0
 10
165.191
 20
90.1513
 30
0.0
 11
165.578
 21
90.5372
 31
0.0
  0
LINE
  8
0
 62
     0
 10
165.578
 20
90.5372
 30
0.0
 11
165.826
 21
91.0248
 31
0.0
  0
LINE
  8
0
 62
     0
 10
165.826
 20
91.0248
 30
0.0
 11
165.913
 21
91.5652
 31
0.0
  0
LINE
  8
0
 62
     0
 10
165.913
 20
91.5652
 30
0.0
 11
165.826
 21
92.1067
 31
0.0
  0
LINE
  8
0
 62
     0
 10
165.826
 20
92.1067
 30
0.0
 11
165.578
 21
92.5946
 31
0.0
  0
LINE
  8
0
 62
     0
 10
165.578
 20
92.5946
 30
0.0
 11
165.191
 21
92.9816
 31
0.0
  0
LINE
  8
0
 62
     0
 10
165.191
 20
92.9816
 30
0.0
 11
164.703
 21
93.2311
 31
0.0
  0
LINE
  8
0
 62
     0
 10
164.703
 20
93.2311
 30
0.0
 11
164.163
 21
93.3154
 31
0.0
  0
LINE
  8
0
 62
     0
 10
164.163
 20
93.3154
 30
0.0
 11
163.622
 21
93.2311
 31
0.0
  0
LINE
  8
0
 62
     0
 10
243.155
 20
93.2311
 30
0.0
 11
242.667
 21
92.9816
 31
0.0
  0
LINE
  8
0
 62
     0
 10
242.667
 20
92.9816
 30
0.0
 11
242.281
 21
92.5946
 31
0.0
  0
LINE
  8
0
 62
     0
 10
242.281
 20
92.5946
 30
0.0
 11
242.032
 21
92.1067
 31
0.0
  0
LINE
  8
0
 62
     0
 10
242.032
 20
92.1067
 30
0.0
 11
241.946
 21
91.5652
 31
0.0
  0
LINE
  8
0
 62
     0
 10
241.946
 20
91.5652
 30
0.0
 11
242.032
 21
91.0248
 31
0.0
  0
LINE
  8
0
 62
     0
 10
242.032
 20
91.0248
 30
0.0
 11
242.281
 21
90.5372
 31
0.0
  0
LINE
  8
0
 62
     0
 10
242.281
 20
90.5372
 30
0.0
 11
242.667
 21
90.1513
 31
0.0
  0
LINE
  8
0
 62
     0
 10
242.667
 20
90.1513
 30
0.0
 11
243.155
 21
89.9019
 31
0.0
  0
LINE
  8
0
 62
     0
 10
243.155
 20
89.9019
 30
0.0
 11
243.696
 21
89.8151
 31
0.0
  0
LINE
  8
0
 62
     0
 10
243.696
 20
89.8151
 30
0.0
 11
244.237
 21
89.9019
 31
0.0
  0
LINE
  8
0
 62
     0
 10
244.237
 20
89.9019
 30
0.0
 11
244.724
 21
90.1513
 31
0.0
  0
LINE
  8
0
 62
     0
 10
244.724
 20
90.1513
 30
0.0
 11
245.112
 21
90.5372
 31
0.0
  0
LINE
  8
0
 62
     0
 10
245.112
 20
90.5372
 30
0.0
 11
245.361
 21
91.0248
 31
0.0
  0
LINE
  8
0
 62
     0
 10
245.361
 20
91.0248
 30
0.0
 11
245.447
 21
91.5652
 31
0.0
  0
LINE
  8
0
 62
     0
 10
245.447
 20
91.5652
 30
0.0
 11
245.361
 21
92.1067
 31
0.0
  0
LINE
  8
0
 62
     0
 10
245.361
 20
92.1067
 30
0.0
 11
245.112
 21
92.5946
 31
0.0
  0
LINE
  8
0
 62
     0
 10
245.112
 20
92.5946
 30
0.0
 11
244.724
 21
92.9816
 31
0.0
  0
LINE
  8
0
 62
     0
 10
244.724
 20
92.9816
 30
0.0
 11
244.237
 21
93.2311
 31
0.0
  0
LINE
  8
0
 62
     0
 10
244.237
 20
93.2311
 30
0.0
 11
243.696
 21
93.3154
 31
0.0
  0
LINE
  8
0
 62
     0
 10
243.696
 20
93.3154
 30
0.0
 11
243.155
 21
93.2311
 31
0.0
  0
LINE
  8
0
 62
     0
 10
4.55443
 20
93.2311
 30
0.0
 11
4.06658
 21
92.9816
 31
0.0
  0
LINE
  8
0
 62
     0
 10
4.06658
 20
92.9816
 30
0.0
 11
3.67937
 21
92.5946
 31
0.0
  0
LINE
  8
0
 62
     0
 10
3.67937
 20
92.5946
 30
0.0
 11
3.42994
 21
92.1067
 31
0.0
  0
LINE
  8
0
 62
     0
 10
3.42994
 20
92.1067
 30
0.0
 11
3.3445
 21
91.5652
 31
0.0
  0
LINE
  8
0
 62
     0
 10
3.3445
 20
91.5652
 30
0.0
 11
3.42994
 21
91.0248
 31
0.0
  0
LINE
  8
0
 62
     0
 10
3.42994
 20
91.0248
 30
0.0
 11
3.67937
 21
90.5372
 31
0.0
  0
LINE
  8
0
 62
     0
 10
3.67937
 20
90.5372
 30
0.0
 11
4.06658
 21
90.1513
 31
0.0
  0
LINE
  8
0
 62
     0
 10
4.06658
 20
90.1513
 30
0.0
 11
4.55443
 21
89.9019
 31
0.0
  0
LINE
  8
0
 62
     0
 10
4.55443
 20
89.9019
 30
0.0
 11
5.0946
 21
89.8151
 31
0.0
  0
LINE
  8
0
 62
     0
 10
5.0946
 20
89.8151
 30
0.0
 11
5.63619
 21
89.9019
 31
0.0
  0
LINE
  8
0
 62
     0
 10
5.63619
 20
89.9019
 30
0.0
 11
6.12401
 21
90.1513
 31
0.0
  0
LINE
  8
0
 62
     0
 10
6.12401
 20
90.1513
 30
0.0
 11
6.50984
 21
90.5372
 31
0.0
  0
LINE
  8
0
 62
     0
 10
6.50984
 20
90.5372
 30
0.0
 11
6.75929
 21
91.0248
 31
0.0
  0
LINE
  8
0
 62
     0
 10
6.75929
 20
91.0248
 30
0.0
 11
6.8447
 21
91.5652
 31
0.0
  0
LINE
  8
0
 62
     0
 10
6.8447
 20
91.5652
 30
0.0
 11
6.75929
 21
92.1067
 31
0.0
  0
LINE
  8
0
 62
     0
 10
6.75929
 20
92.1067
 30
0.0
 11
6.50984
 21
92.5946
 31
0.0
  0
LINE
  8
0
 62
     0
 10
6.50984
 20
92.5946
 30
0.0
 11
6.12401
 21
92.9816
 31
0.0
  0
LINE
  8
0
 62
     0
 10
6.12401
 20
92.9816
 30
0.0
 11
5.63619
 21
93.2311
 31
0.0
  0
LINE
  8
0
 62
     0
 10
5.63619
 20
93.2311
 30
0.0
 11
5.0946
 21
93.3154
 31
0.0
  0
LINE
  8
0
 62
     0
 10
5.0946
 20
93.3154
 30
0.0
 11
4.55443
 21
93.2311
 31
0.0
  0
ENDSEC
  0
EOF
