  0
SECTION
  2
HEADER
  9
$ACADVER
  1
AC1009
  9
$FILLMODE
 70
 0
  9
$SPLFRAME
 70
 1
  9
$EXTMIN
 10
0
 20
0
 30
0.0
  9
$EXTMAX
 10
1058.33
 20
1058.33
 30
0.0
  0
ENDSEC
  0
SECTION
  2
TABLES
  0
TABLE
  2
LAYER
 70
1
  0
LAYER
  2
0
 70
     0
 62
     7
  6
CONTINUOUS
  0
ENDTAB
  0
ENDSEC
  0
SECTION
  2
ENTITIES
  0
LINE
  8
0
 62
     0
 10
243.845
 20
96.5659
 30
0.0
 11
244.238
 21
96.551
 31
0.0
  0
LINE
  8
0
 62
     0
 10
244.238
 20
96.551
 30
0.0
 11
244.628
 21
96.5041
 31
0.0
  0
LINE
  8
0
 62
     0
 10
244.628
 20
96.5041
 30
0.0
 11
245.012
 21
96.4283
 31
0.0
  0
LINE
  8
0
 62
     0
 10
245.012
 20
96.4283
 30
0.0
 11
245.39
 21
96.3221
 31
0.0
  0
LINE
  8
0
 62
     0
 10
245.39
 20
96.3221
 30
0.0
 11
245.758
 21
96.1856
 31
0.0
  0
LINE
  8
0
 62
     0
 10
245.758
 20
96.1856
 30
0.0
 11
246.115
 21
96.0219
 31
0.0
  0
LINE
  8
0
 62
     0
 10
246.115
 20
96.0219
 30
0.0
 11
246.458
 21
95.8303
 31
0.0
  0
LINE
  8
0
 62
     0
 10
246.458
 20
95.8303
 30
0.0
 11
246.783
 21
95.6109
 31
0.0
  0
LINE
  8
0
 62
     0
 10
246.783
 20
95.6109
 30
0.0
 11
247.092
 21
95.3685
 31
0.0
  0
LINE
  8
0
 62
     0
 10
247.092
 20
95.3685
 30
0.0
 11
247.38
 21
95.1011
 31
0.0
  0
LINE
  8
0
 62
     0
 10
247.38
 20
95.1011
 30
0.0
 11
247.647
 21
94.8133
 31
0.0
  0
LINE
  8
0
 62
     0
 10
247.647
 20
94.8133
 30
0.0
 11
247.891
 21
94.5046
 31
0.0
  0
LINE
  8
0
 62
     0
 10
247.891
 20
94.5046
 30
0.0
 11
248.109
 21
94.1793
 31
0.0
  0
LINE
  8
0
 62
     0
 10
248.109
 20
94.1793
 30
0.0
 11
248.301
 21
93.8361
 31
0.0
  0
LINE
  8
0
 62
     0
 10
248.301
 20
93.8361
 30
0.0
 11
248.465
 21
93.4791
 31
0.0
  0
LINE
  8
0
 62
     0
 10
248.465
 20
93.4791
 30
0.0
 11
248.601
 21
93.1115
 31
0.0
  0
LINE
  8
0
 62
     0
 10
248.601
 20
93.1115
 30
0.0
 11
248.707
 21
92.7336
 31
0.0
  0
LINE
  8
0
 62
     0
 10
248.707
 20
92.7336
 30
0.0
 11
248.784
 21
92.3491
 31
0.0
  0
LINE
  8
0
 62
     0
 10
248.784
 20
92.3491
 30
0.0
 11
248.83
 21
91.9593
 31
0.0
  0
LINE
  8
0
 62
     0
 10
248.83
 20
91.9593
 30
0.0
 11
248.846
 21
91.5652
 31
0.0
  0
LINE
  8
0
 62
     0
 10
248.846
 20
91.5652
 30
0.0
 11
248.846
 21
5.21451
 31
0.0
  0
LINE
  8
0
 62
     0
 10
248.846
 20
5.21451
 30
0.0
 11
248.83
 21
4.82314
 31
0.0
  0
LINE
  8
0
 62
     0
 10
248.83
 20
4.82314
 30
0.0
 11
248.784
 21
4.43315
 31
0.0
  0
LINE
  8
0
 62
     0
 10
248.784
 20
4.43315
 30
0.0
 11
248.707
 21
4.04731
 31
0.0
  0
LINE
  8
0
 62
     0
 10
248.707
 20
4.04731
 30
0.0
 11
248.601
 21
3.6697
 31
0.0
  0
LINE
  8
0
 62
     0
 10
248.601
 20
3.6697
 30
0.0
 11
248.465
 21
3.30178
 31
0.0
  0
LINE
  8
0
 62
     0
 10
248.465
 20
3.30178
 30
0.0
 11
248.301
 21
2.94624
 31
0.0
  0
LINE
  8
0
 62
     0
 10
248.301
 20
2.94624
 30
0.0
 11
248.109
 21
2.60312
 31
0.0
  0
LINE
  8
0
 62
     0
 10
248.109
 20
2.60312
 30
0.0
 11
247.891
 21
2.27652
 31
0.0
  0
LINE
  8
0
 62
     0
 10
247.891
 20
2.27652
 30
0.0
 11
247.647
 21
1.96784
 31
0.0
  0
LINE
  8
0
 62
     0
 10
247.647
 20
1.96784
 30
0.0
 11
247.38
 21
1.67983
 31
0.0
  0
LINE
  8
0
 62
     0
 10
247.38
 20
1.67983
 30
0.0
 11
247.092
 21
1.41249
 31
0.0
  0
LINE
  8
0
 62
     0
 10
247.092
 20
1.41249
 30
0.0
 11
246.783
 21
1.16996
 31
0.0
  0
LINE
  8
0
 62
     0
 10
246.783
 20
1.16996
 30
0.0
 11
246.458
 21
0.952225
 31
0.0
  0
LINE
  8
0
 62
     0
 10
246.458
 20
0.952225
 30
0.0
 11
246.115
 21
0.759298
 31
0.0
  0
LINE
  8
0
 62
     0
 10
246.115
 20
0.759298
 30
0.0
 11
245.758
 21
0.595313
 31
0.0
  0
LINE
  8
0
 62
     0
 10
245.758
 20
0.595313
 30
0.0
 11
245.39
 21
0.460266
 31
0.0
  0
LINE
  8
0
 62
     0
 10
245.39
 20
0.460266
 30
0.0
 11
245.012
 21
0.354157
 31
0.0
  0
LINE
  8
0
 62
     0
 10
245.012
 20
0.354157
 30
0.0
 11
244.628
 21
0.276986
 31
0.0
  0
LINE
  8
0
 62
     0
 10
244.628
 20
0.276986
 30
0.0
 11
244.238
 21
0.230132
 31
0.0
  0
LINE
  8
0
 62
     0
 10
244.238
 20
0.230132
 30
0.0
 11
243.845
 21
0.214974
 31
0.0
  0
LINE
  8
0
 62
     0
 10
243.845
 20
0.214974
 30
0.0
 11
5.0946
 21
0.214974
 31
0.0
  0
LINE
  8
0
 62
     0
 10
5.0946
 20
0.214974
 30
0.0
 11
4.70186
 21
0.230132
 31
0.0
  0
LINE
  8
0
 62
     0
 10
4.70186
 20
0.230132
 30
0.0
 11
4.3119
 21
0.276986
 31
0.0
  0
LINE
  8
0
 62
     0
 10
4.3119
 20
0.276986
 30
0.0
 11
3.92603
 21
0.354157
 31
0.0
  0
LINE
  8
0
 62
     0
 10
3.92603
 20
0.354157
 30
0.0
 11
3.54845
 21
0.460266
 31
0.0
  0
LINE
  8
0
 62
     0
 10
3.54845
 20
0.460266
 30
0.0
 11
3.18051
 21
0.595313
 31
0.0
  0
LINE
  8
0
 62
     0
 10
3.18051
 20
0.595313
 30
0.0
 11
2.82498
 21
0.759298
 31
0.0
  0
LINE
  8
0
 62
     0
 10
2.82498
 20
0.759298
 30
0.0
 11
2.48185
 21
0.952225
 31
0.0
  0
LINE
  8
0
 62
     0
 10
2.48185
 20
0.952225
 30
0.0
 11
2.15525
 21
1.16996
 31
0.0
  0
LINE
  8
0
 62
     0
 10
2.15525
 20
1.16996
 30
0.0
 11
1.84657
 21
1.41249
 31
0.0
  0
LINE
  8
0
 62
     0
 10
1.84657
 20
1.41249
 30
0.0
 11
1.55856
 21
1.67983
 31
0.0
  0
LINE
  8
0
 62
     0
 10
1.55856
 20
1.67983
 30
0.0
 11
1.29122
 21
1.96784
 31
0.0
  0
LINE
  8
0
 62
     0
 10
1.29122
 20
1.96784
 30
0.0
 11
1.04869
 21
2.27652
 31
0.0
  0
LINE
  8
0
 62
     0
 10
1.04869
 20
2.27652
 30
0.0
 11
0.830957
 21
2.60312
 31
0.0
  0
LINE
  8
0
 62
     0
 10
0.830957
 20
2.60312
 30
0.0
 11
0.63803
 21
2.94624
 31
0.0
  0
LINE
  8
0
 62
     0
 10
0.63803
 20
2.94624
 30
0.0
 11
0.474045
 21
3.30178
 31
0.0
  0
LINE
  8
0
 62
     0
 10
0.474045
 20
3.30178
 30
0.0
 11
0.338998
 21
3.6697
 31
0.0
  0
LINE
  8
0
 62
     0
 10
0.338998
 20
3.6697
 30
0.0
 11
0.232888
 21
4.04731
 31
0.0
  0
LINE
  8
0
 62
     0
 10
0.232888
 20
4.04731
 30
0.0
 11
0.155718
 21
4.43315
 31
0.0
  0
LINE
  8
0
 62
     0
 10
0.155718
 20
4.43315
 30
0.0
 11
0.108865
 21
4.82314
 31
0.0
  0
LINE
  8
0
 62
     0
 10
0.108865
 20
4.82314
 30
0.0
 11
0.0950846
 21
5.21589
 31
0.0
  0
LINE
  8
0
 62
     0
 10
0.0950846
 20
5.21589
 30
0.0
 11
0.0950846
 21
91.5652
 31
0.0
  0
LINE
  8
0
 62
     0
 10
0.0950846
 20
91.5652
 30
0.0
 11
0.108865
 21
91.9593
 31
0.0
  0
LINE
  8
0
 62
     0
 10
0.108865
 20
91.9593
 30
0.0
 11
0.155718
 21
92.3491
 31
0.0
  0
LINE
  8
0
 62
     0
 10
0.155718
 20
92.3491
 30
0.0
 11
0.232888
 21
92.7336
 31
0.0
  0
LINE
  8
0
 62
     0
 10
0.232888
 20
92.7336
 30
0.0
 11
0.338998
 21
93.1115
 31
0.0
  0
LINE
  8
0
 62
     0
 10
0.338998
 20
93.1115
 30
0.0
 11
0.474045
 21
93.4791
 31
0.0
  0
LINE
  8
0
 62
     0
 10
0.474045
 20
93.4791
 30
0.0
 11
0.63803
 21
93.8361
 31
0.0
  0
LINE
  8
0
 62
     0
 10
0.63803
 20
93.8361
 30
0.0
 11
0.830957
 21
94.1793
 31
0.0
  0
LINE
  8
0
 62
     0
 10
0.830957
 20
94.1793
 30
0.0
 11
1.04869
 21
94.5046
 31
0.0
  0
LINE
  8
0
 62
     0
 10
1.04869
 20
94.5046
 30
0.0
 11
1.29122
 21
94.8133
 31
0.0
  0
LINE
  8
0
 62
     0
 10
1.29122
 20
94.8133
 30
0.0
 11
1.55856
 21
95.1011
 31
0.0
  0
LINE
  8
0
 62
     0
 10
1.55856
 20
95.1011
 30
0.0
 11
1.84657
 21
95.3685
 31
0.0
  0
LINE
  8
0
 62
     0
 10
1.84657
 20
95.3685
 30
0.0
 11
2.15525
 21
95.6109
 31
0.0
  0
LINE
  8
0
 62
     0
 10
2.15525
 20
95.6109
 30
0.0
 11
2.48185
 21
95.8303
 31
0.0
  0
LINE
  8
0
 62
     0
 10
2.48185
 20
95.8303
 30
0.0
 11
2.82498
 21
96.0219
 31
0.0
  0
LINE
  8
0
 62
     0
 10
2.82498
 20
96.0219
 30
0.0
 11
3.18051
 21
96.1856
 31
0.0
  0
LINE
  8
0
 62
     0
 10
3.18051
 20
96.1856
 30
0.0
 11
3.54845
 21
96.3221
 31
0.0
  0
LINE
  8
0
 62
     0
 10
3.54845
 20
96.3221
 30
0.0
 11
3.92603
 21
96.4283
 31
0.0
  0
LINE
  8
0
 62
     0
 10
3.92603
 20
96.4283
 30
0.0
 11
4.3119
 21
96.5041
 31
0.0
  0
LINE
  8
0
 62
     0
 10
4.3119
 20
96.5041
 30
0.0
 11
4.70186
 21
96.551
 31
0.0
  0
LINE
  8
0
 62
     0
 10
4.70186
 20
96.551
 30
0.0
 11
5.0946
 21
96.5659
 31
0.0
  0
LINE
  8
0
 62
     0
 10
5.0946
 20
96.5659
 30
0.0
 11
243.845
 21
96.5659
 31
0.0
  0
LINE
  8
0
 62
     0
 10
243.253
 20
6.88329
 30
0.0
 11
242.786
 21
6.64626
 31
0.0
  0
LINE
  8
0
 62
     0
 10
242.786
 20
6.64626
 30
0.0
 11
242.415
 21
6.27422
 31
0.0
  0
LINE
  8
0
 62
     0
 10
242.415
 20
6.27422
 30
0.0
 11
242.176
 21
5.80704
 31
0.0
  0
LINE
  8
0
 62
     0
 10
242.176
 20
5.80704
 30
0.0
 11
242.095
 21
5.29029
 31
0.0
  0
LINE
  8
0
 62
     0
 10
242.095
 20
5.29029
 30
0.0
 11
242.176
 21
4.77213
 31
0.0
  0
LINE
  8
0
 62
     0
 10
242.176
 20
4.77213
 30
0.0
 11
242.415
 21
4.30498
 31
0.0
  0
LINE
  8
0
 62
     0
 10
242.415
 20
4.30498
 30
0.0
 11
242.786
 21
3.93428
 31
0.0
  0
LINE
  8
0
 62
     0
 10
242.786
 20
3.93428
 30
0.0
 11
243.253
 21
3.69729
 31
0.0
  0
LINE
  8
0
 62
     0
 10
243.253
 20
3.69729
 30
0.0
 11
243.771
 21
3.61597
 31
0.0
  0
LINE
  8
0
 62
     0
 10
243.771
 20
3.61597
 30
0.0
 11
244.288
 21
3.69729
 31
0.0
  0
LINE
  8
0
 62
     0
 10
244.288
 20
3.69729
 30
0.0
 11
244.755
 21
3.93428
 31
0.0
  0
LINE
  8
0
 62
     0
 10
244.755
 20
3.93428
 30
0.0
 11
245.126
 21
4.30498
 31
0.0
  0
LINE
  8
0
 62
     0
 10
245.126
 20
4.30498
 30
0.0
 11
245.364
 21
4.77213
 31
0.0
  0
LINE
  8
0
 62
     0
 10
245.364
 20
4.77213
 30
0.0
 11
245.445
 21
5.29029
 31
0.0
  0
LINE
  8
0
 62
     0
 10
245.445
 20
5.29029
 30
0.0
 11
245.364
 21
5.80704
 31
0.0
  0
LINE
  8
0
 62
     0
 10
245.364
 20
5.80704
 30
0.0
 11
245.126
 21
6.27422
 31
0.0
  0
LINE
  8
0
 62
     0
 10
245.126
 20
6.27422
 30
0.0
 11
244.755
 21
6.64626
 31
0.0
  0
LINE
  8
0
 62
     0
 10
244.755
 20
6.64626
 30
0.0
 11
244.288
 21
6.88329
 31
0.0
  0
LINE
  8
0
 62
     0
 10
244.288
 20
6.88329
 30
0.0
 11
243.771
 21
6.96461
 31
0.0
  0
LINE
  8
0
 62
     0
 10
243.771
 20
6.96461
 30
0.0
 11
243.253
 21
6.88329
 31
0.0
  0
LINE
  8
0
 62
     0
 10
163.718
 20
6.88329
 30
0.0
 11
163.252
 21
6.64626
 31
0.0
  0
LINE
  8
0
 62
     0
 10
163.252
 20
6.64626
 30
0.0
 11
162.881
 21
6.27422
 31
0.0
  0
LINE
  8
0
 62
     0
 10
162.881
 20
6.27422
 30
0.0
 11
162.643
 21
5.80704
 31
0.0
  0
LINE
  8
0
 62
     0
 10
162.643
 20
5.80704
 30
0.0
 11
162.562
 21
5.29029
 31
0.0
  0
LINE
  8
0
 62
     0
 10
162.562
 20
5.29029
 30
0.0
 11
162.643
 21
4.77213
 31
0.0
  0
LINE
  8
0
 62
     0
 10
162.643
 20
4.77213
 30
0.0
 11
162.881
 21
4.30498
 31
0.0
  0
LINE
  8
0
 62
     0
 10
162.881
 20
4.30498
 30
0.0
 11
163.252
 21
3.93428
 31
0.0
  0
LINE
  8
0
 62
     0
 10
163.252
 20
3.93428
 30
0.0
 11
163.718
 21
3.69729
 31
0.0
  0
LINE
  8
0
 62
     0
 10
163.718
 20
3.69729
 30
0.0
 11
164.236
 21
3.61597
 31
0.0
  0
LINE
  8
0
 62
     0
 10
164.236
 20
3.61597
 30
0.0
 11
164.754
 21
3.69729
 31
0.0
  0
LINE
  8
0
 62
     0
 10
164.754
 20
3.69729
 30
0.0
 11
165.22
 21
3.93428
 31
0.0
  0
LINE
  8
0
 62
     0
 10
165.22
 20
3.93428
 30
0.0
 11
165.592
 21
4.30498
 31
0.0
  0
LINE
  8
0
 62
     0
 10
165.592
 20
4.30498
 30
0.0
 11
165.829
 21
4.77213
 31
0.0
  0
LINE
  8
0
 62
     0
 10
165.829
 20
4.77213
 30
0.0
 11
165.912
 21
5.29029
 31
0.0
  0
LINE
  8
0
 62
     0
 10
165.912
 20
5.29029
 30
0.0
 11
165.829
 21
5.80704
 31
0.0
  0
LINE
  8
0
 62
     0
 10
165.829
 20
5.80704
 30
0.0
 11
165.592
 21
6.27422
 31
0.0
  0
LINE
  8
0
 62
     0
 10
165.592
 20
6.27422
 30
0.0
 11
165.22
 21
6.64626
 31
0.0
  0
LINE
  8
0
 62
     0
 10
165.22
 20
6.64626
 30
0.0
 11
164.754
 21
6.88329
 31
0.0
  0
LINE
  8
0
 62
     0
 10
164.754
 20
6.88329
 30
0.0
 11
164.236
 21
6.96461
 31
0.0
  0
LINE
  8
0
 62
     0
 10
164.236
 20
6.96461
 30
0.0
 11
163.718
 21
6.88329
 31
0.0
  0
LINE
  8
0
 62
     0
 10
84.1858
 20
6.88329
 30
0.0
 11
83.7188
 21
6.64626
 31
0.0
  0
LINE
  8
0
 62
     0
 10
83.7188
 20
6.64626
 30
0.0
 11
83.348
 21
6.27422
 31
0.0
  0
LINE
  8
0
 62
     0
 10
83.348
 20
6.27422
 30
0.0
 11
83.1095
 21
5.80704
 31
0.0
  0
LINE
  8
0
 62
     0
 10
83.1095
 20
5.80704
 30
0.0
 11
83.027
 21
5.29029
 31
0.0
  0
LINE
  8
0
 62
     0
 10
83.027
 20
5.29029
 30
0.0
 11
83.1095
 21
4.77213
 31
0.0
  0
LINE
  8
0
 62
     0
 10
83.1095
 20
4.77213
 30
0.0
 11
83.348
 21
4.30498
 31
0.0
  0
LINE
  8
0
 62
     0
 10
83.348
 20
4.30498
 30
0.0
 11
83.7188
 21
3.93428
 31
0.0
  0
LINE
  8
0
 62
     0
 10
83.7188
 20
3.93428
 30
0.0
 11
84.1858
 21
3.69729
 31
0.0
  0
LINE
  8
0
 62
     0
 10
84.1858
 20
3.69729
 30
0.0
 11
84.7027
 21
3.61597
 31
0.0
  0
LINE
  8
0
 62
     0
 10
84.7027
 20
3.61597
 30
0.0
 11
85.2205
 21
3.69729
 31
0.0
  0
LINE
  8
0
 62
     0
 10
85.2205
 20
3.69729
 30
0.0
 11
85.688
 21
3.93428
 31
0.0
  0
LINE
  8
0
 62
     0
 10
85.688
 20
3.93428
 30
0.0
 11
86.057
 21
4.30498
 31
0.0
  0
LINE
  8
0
 62
     0
 10
86.057
 20
4.30498
 30
0.0
 11
86.2954
 21
4.77213
 31
0.0
  0
LINE
  8
0
 62
     0
 10
86.2954
 20
4.77213
 30
0.0
 11
86.3769
 21
5.29029
 31
0.0
  0
LINE
  8
0
 62
     0
 10
86.3769
 20
5.29029
 30
0.0
 11
86.2954
 21
5.80704
 31
0.0
  0
LINE
  8
0
 62
     0
 10
86.2954
 20
5.80704
 30
0.0
 11
86.057
 21
6.27422
 31
0.0
  0
LINE
  8
0
 62
     0
 10
86.057
 20
6.27422
 30
0.0
 11
85.688
 21
6.64626
 31
0.0
  0
LINE
  8
0
 62
     0
 10
85.688
 20
6.64626
 30
0.0
 11
85.2205
 21
6.88329
 31
0.0
  0
LINE
  8
0
 62
     0
 10
85.2205
 20
6.88329
 30
0.0
 11
84.7027
 21
6.96461
 31
0.0
  0
LINE
  8
0
 62
     0
 10
84.7027
 20
6.96461
 30
0.0
 11
84.1858
 21
6.88329
 31
0.0
  0
LINE
  8
0
 62
     0
 10
4.65088
 20
6.88329
 30
0.0
 11
4.18511
 21
6.64626
 31
0.0
  0
LINE
  8
0
 62
     0
 10
4.18511
 20
6.64626
 30
0.0
 11
3.81303
 21
6.27422
 31
0.0
  0
LINE
  8
0
 62
     0
 10
3.81303
 20
6.27422
 30
0.0
 11
3.576
 21
5.80704
 31
0.0
  0
LINE
  8
0
 62
     0
 10
3.576
 20
5.80704
 30
0.0
 11
3.4947
 21
5.29029
 31
0.0
  0
LINE
  8
0
 62
     0
 10
3.4947
 20
5.29029
 30
0.0
 11
3.576
 21
4.77213
 31
0.0
  0
LINE
  8
0
 62
     0
 10
3.576
 20
4.77213
 30
0.0
 11
3.81303
 21
4.30498
 31
0.0
  0
LINE
  8
0
 62
     0
 10
3.81303
 20
4.30498
 30
0.0
 11
4.18511
 21
3.93428
 31
0.0
  0
LINE
  8
0
 62
     0
 10
4.18511
 20
3.93428
 30
0.0
 11
4.65088
 21
3.69729
 31
0.0
  0
LINE
  8
0
 62
     0
 10
4.65088
 20
3.69729
 30
0.0
 11
5.16901
 21
3.61597
 31
0.0
  0
LINE
  8
0
 62
     0
 10
5.16901
 20
3.61597
 30
0.0
 11
5.68717
 21
3.69729
 31
0.0
  0
LINE
  8
0
 62
     0
 10
5.68717
 20
3.69729
 30
0.0
 11
6.15294
 21
3.93428
 31
0.0
  0
LINE
  8
0
 62
     0
 10
6.15294
 20
3.93428
 30
0.0
 11
6.52501
 21
4.30498
 31
0.0
  0
LINE
  8
0
 62
     0
 10
6.52501
 20
4.30498
 30
0.0
 11
6.76204
 21
4.77213
 31
0.0
  0
LINE
  8
0
 62
     0
 10
6.76204
 20
4.77213
 30
0.0
 11
6.8447
 21
5.29029
 31
0.0
  0
LINE
  8
0
 62
     0
 10
6.8447
 20
5.29029
 30
0.0
 11
6.76204
 21
5.80704
 31
0.0
  0
LINE
  8
0
 62
     0
 10
6.76204
 20
5.80704
 30
0.0
 11
6.52501
 21
6.27422
 31
0.0
  0
LINE
  8
0
 62
     0
 10
6.52501
 20
6.27422
 30
0.0
 11
6.15294
 21
6.64626
 31
0.0
  0
LINE
  8
0
 62
     0
 10
6.15294
 20
6.64626
 30
0.0
 11
5.68717
 21
6.88329
 31
0.0
  0
LINE
  8
0
 62
     0
 10
5.68717
 20
6.88329
 30
0.0
 11
5.16901
 21
6.96461
 31
0.0
  0
LINE
  8
0
 62
     0
 10
5.16901
 20
6.96461
 30
0.0
 11
4.65088
 21
6.88329
 31
0.0
  0
LINE
  8
0
 62
     0
 10
11.9696
 20
26.14
 30
0.0
 11
27.4188
 21
26.14
 31
0.0
  0
LINE
  8
0
 62
     0
 10
27.4188
 20
26.14
 30
0.0
 11
27.4188
 21
13.491
 31
0.0
  0
LINE
  8
0
 62
     0
 10
27.4188
 20
13.491
 30
0.0
 11
11.9696
 21
13.491
 31
0.0
  0
LINE
  8
0
 62
     0
 10
11.9696
 20
13.491
 30
0.0
 11
11.9696
 21
26.14
 31
0.0
  0
LINE
  8
0
 62
     0
 10
31.0196
 20
26.14
 30
0.0
 11
46.4689
 21
26.14
 31
0.0
  0
LINE
  8
0
 62
     0
 10
46.4689
 20
26.14
 30
0.0
 11
46.4689
 21
13.491
 31
0.0
  0
LINE
  8
0
 62
     0
 10
46.4689
 20
13.491
 30
0.0
 11
31.0196
 21
13.491
 31
0.0
  0
LINE
  8
0
 62
     0
 10
31.0196
 20
13.491
 30
0.0
 11
31.0196
 21
26.14
 31
0.0
  0
LINE
  8
0
 62
     0
 10
50.0697
 20
26.14
 30
0.0
 11
65.519
 21
26.14
 31
0.0
  0
LINE
  8
0
 62
     0
 10
65.519
 20
26.14
 30
0.0
 11
65.519
 21
13.491
 31
0.0
  0
LINE
  8
0
 62
     0
 10
65.519
 20
13.491
 30
0.0
 11
50.0697
 21
13.491
 31
0.0
  0
LINE
  8
0
 62
     0
 10
50.0697
 20
13.491
 30
0.0
 11
50.0697
 21
26.14
 31
0.0
  0
LINE
  8
0
 62
     0
 10
69.1197
 20
26.14
 30
0.0
 11
84.569
 21
26.14
 31
0.0
  0
LINE
  8
0
 62
     0
 10
84.569
 20
26.14
 30
0.0
 11
84.569
 21
13.491
 31
0.0
  0
LINE
  8
0
 62
     0
 10
84.569
 20
13.491
 30
0.0
 11
69.1197
 21
13.491
 31
0.0
  0
LINE
  8
0
 62
     0
 10
69.1197
 20
13.491
 30
0.0
 11
69.1197
 21
26.14
 31
0.0
  0
LINE
  8
0
 62
     0
 10
88.1697
 20
26.14
 30
0.0
 11
103.619
 21
26.14
 31
0.0
  0
LINE
  8
0
 62
     0
 10
103.619
 20
26.14
 30
0.0
 11
103.619
 21
13.491
 31
0.0
  0
LINE
  8
0
 62
     0
 10
103.619
 20
13.491
 30
0.0
 11
88.1697
 21
13.491
 31
0.0
  0
LINE
  8
0
 62
     0
 10
88.1697
 20
13.491
 30
0.0
 11
88.1697
 21
26.14
 31
0.0
  0
LINE
  8
0
 62
     0
 10
107.22
 20
26.14
 30
0.0
 11
122.669
 21
26.14
 31
0.0
  0
LINE
  8
0
 62
     0
 10
122.669
 20
26.14
 30
0.0
 11
122.669
 21
13.491
 31
0.0
  0
LINE
  8
0
 62
     0
 10
122.669
 20
13.491
 30
0.0
 11
107.22
 21
13.491
 31
0.0
  0
LINE
  8
0
 62
     0
 10
107.22
 20
13.491
 30
0.0
 11
107.22
 21
26.14
 31
0.0
  0
LINE
  8
0
 62
     0
 10
126.27
 20
26.14
 30
0.0
 11
141.719
 21
26.14
 31
0.0
  0
LINE
  8
0
 62
     0
 10
141.719
 20
26.14
 30
0.0
 11
141.719
 21
13.491
 31
0.0
  0
LINE
  8
0
 62
     0
 10
141.719
 20
13.491
 30
0.0
 11
126.27
 21
13.491
 31
0.0
  0
LINE
  8
0
 62
     0
 10
126.27
 20
13.491
 30
0.0
 11
126.27
 21
26.14
 31
0.0
  0
LINE
  8
0
 62
     0
 10
145.32
 20
26.14
 30
0.0
 11
160.769
 21
26.14
 31
0.0
  0
LINE
  8
0
 62
     0
 10
160.769
 20
26.14
 30
0.0
 11
160.769
 21
13.491
 31
0.0
  0
LINE
  8
0
 62
     0
 10
160.769
 20
13.491
 30
0.0
 11
145.32
 21
13.491
 31
0.0
  0
LINE
  8
0
 62
     0
 10
145.32
 20
13.491
 30
0.0
 11
145.32
 21
26.14
 31
0.0
  0
LINE
  8
0
 62
     0
 10
164.37
 20
26.14
 30
0.0
 11
179.819
 21
26.14
 31
0.0
  0
LINE
  8
0
 62
     0
 10
179.819
 20
26.14
 30
0.0
 11
179.819
 21
13.491
 31
0.0
  0
LINE
  8
0
 62
     0
 10
179.819
 20
13.491
 30
0.0
 11
164.37
 21
13.491
 31
0.0
  0
LINE
  8
0
 62
     0
 10
164.37
 20
13.491
 30
0.0
 11
164.37
 21
26.14
 31
0.0
  0
LINE
  8
0
 62
     0
 10
183.42
 20
26.14
 30
0.0
 11
198.869
 21
26.14
 31
0.0
  0
LINE
  8
0
 62
     0
 10
198.869
 20
26.14
 30
0.0
 11
198.869
 21
13.491
 31
0.0
  0
LINE
  8
0
 62
     0
 10
198.869
 20
13.491
 30
0.0
 11
183.42
 21
13.491
 31
0.0
  0
LINE
  8
0
 62
     0
 10
183.42
 20
13.491
 30
0.0
 11
183.42
 21
26.14
 31
0.0
  0
LINE
  8
0
 62
     0
 10
202.47
 20
26.14
 30
0.0
 11
217.919
 21
26.14
 31
0.0
  0
LINE
  8
0
 62
     0
 10
217.919
 20
26.14
 30
0.0
 11
217.919
 21
13.491
 31
0.0
  0
LINE
  8
0
 62
     0
 10
217.919
 20
13.491
 30
0.0
 11
202.47
 21
13.491
 31
0.0
  0
LINE
  8
0
 62
     0
 10
202.47
 20
13.491
 30
0.0
 11
202.47
 21
26.14
 31
0.0
  0
LINE
  8
0
 62
     0
 10
221.52
 20
26.14
 30
0.0
 11
236.969
 21
26.14
 31
0.0
  0
LINE
  8
0
 62
     0
 10
236.969
 20
26.14
 30
0.0
 11
236.969
 21
13.491
 31
0.0
  0
LINE
  8
0
 62
     0
 10
236.969
 20
13.491
 30
0.0
 11
221.52
 21
13.491
 31
0.0
  0
LINE
  8
0
 62
     0
 10
221.52
 20
13.491
 30
0.0
 11
221.52
 21
26.14
 31
0.0
  0
LINE
  8
0
 62
     0
 10
11.9696
 20
45.1901
 30
0.0
 11
27.4188
 21
45.1901
 31
0.0
  0
LINE
  8
0
 62
     0
 10
27.4188
 20
45.1901
 30
0.0
 11
27.4188
 21
32.541
 31
0.0
  0
LINE
  8
0
 62
     0
 10
27.4188
 20
32.541
 30
0.0
 11
11.9696
 21
32.541
 31
0.0
  0
LINE
  8
0
 62
     0
 10
11.9696
 20
32.541
 30
0.0
 11
11.9696
 21
45.1901
 31
0.0
  0
LINE
  8
0
 62
     0
 10
31.0196
 20
45.1901
 30
0.0
 11
46.4689
 21
45.1901
 31
0.0
  0
LINE
  8
0
 62
     0
 10
46.4689
 20
45.1901
 30
0.0
 11
46.4689
 21
32.541
 31
0.0
  0
LINE
  8
0
 62
     0
 10
46.4689
 20
32.541
 30
0.0
 11
31.0196
 21
32.541
 31
0.0
  0
LINE
  8
0
 62
     0
 10
31.0196
 20
32.541
 30
0.0
 11
31.0196
 21
45.1901
 31
0.0
  0
LINE
  8
0
 62
     0
 10
50.0697
 20
45.1901
 30
0.0
 11
65.519
 21
45.1901
 31
0.0
  0
LINE
  8
0
 62
     0
 10
65.519
 20
45.1901
 30
0.0
 11
65.519
 21
32.541
 31
0.0
  0
LINE
  8
0
 62
     0
 10
65.519
 20
32.541
 30
0.0
 11
50.0697
 21
32.541
 31
0.0
  0
LINE
  8
0
 62
     0
 10
50.0697
 20
32.541
 30
0.0
 11
50.0697
 21
45.1901
 31
0.0
  0
LINE
  8
0
 62
     0
 10
69.1197
 20
45.1901
 30
0.0
 11
84.569
 21
45.1901
 31
0.0
  0
LINE
  8
0
 62
     0
 10
84.569
 20
45.1901
 30
0.0
 11
84.569
 21
32.541
 31
0.0
  0
LINE
  8
0
 62
     0
 10
84.569
 20
32.541
 30
0.0
 11
69.1197
 21
32.541
 31
0.0
  0
LINE
  8
0
 62
     0
 10
69.1197
 20
32.541
 30
0.0
 11
69.1197
 21
45.1901
 31
0.0
  0
LINE
  8
0
 62
     0
 10
88.1697
 20
45.1901
 30
0.0
 11
103.619
 21
45.1901
 31
0.0
  0
LINE
  8
0
 62
     0
 10
103.619
 20
45.1901
 30
0.0
 11
103.619
 21
32.541
 31
0.0
  0
LINE
  8
0
 62
     0
 10
103.619
 20
32.541
 30
0.0
 11
88.1697
 21
32.541
 31
0.0
  0
LINE
  8
0
 62
     0
 10
88.1697
 20
32.541
 30
0.0
 11
88.1697
 21
45.1901
 31
0.0
  0
LINE
  8
0
 62
     0
 10
107.22
 20
45.1901
 30
0.0
 11
122.669
 21
45.1901
 31
0.0
  0
LINE
  8
0
 62
     0
 10
122.669
 20
45.1901
 30
0.0
 11
122.669
 21
32.541
 31
0.0
  0
LINE
  8
0
 62
     0
 10
122.669
 20
32.541
 30
0.0
 11
107.22
 21
32.541
 31
0.0
  0
LINE
  8
0
 62
     0
 10
107.22
 20
32.541
 30
0.0
 11
107.22
 21
45.1901
 31
0.0
  0
LINE
  8
0
 62
     0
 10
126.27
 20
45.1901
 30
0.0
 11
141.719
 21
45.1901
 31
0.0
  0
LINE
  8
0
 62
     0
 10
141.719
 20
45.1901
 30
0.0
 11
141.719
 21
32.541
 31
0.0
  0
LINE
  8
0
 62
     0
 10
141.719
 20
32.541
 30
0.0
 11
126.27
 21
32.541
 31
0.0
  0
LINE
  8
0
 62
     0
 10
126.27
 20
32.541
 30
0.0
 11
126.27
 21
45.1901
 31
0.0
  0
LINE
  8
0
 62
     0
 10
145.32
 20
45.1901
 30
0.0
 11
160.769
 21
45.1901
 31
0.0
  0
LINE
  8
0
 62
     0
 10
160.769
 20
45.1901
 30
0.0
 11
160.769
 21
32.541
 31
0.0
  0
LINE
  8
0
 62
     0
 10
160.769
 20
32.541
 30
0.0
 11
145.32
 21
32.541
 31
0.0
  0
LINE
  8
0
 62
     0
 10
145.32
 20
32.541
 30
0.0
 11
145.32
 21
45.1901
 31
0.0
  0
LINE
  8
0
 62
     0
 10
164.37
 20
45.1901
 30
0.0
 11
179.819
 21
45.1901
 31
0.0
  0
LINE
  8
0
 62
     0
 10
179.819
 20
45.1901
 30
0.0
 11
179.819
 21
32.541
 31
0.0
  0
LINE
  8
0
 62
     0
 10
179.819
 20
32.541
 30
0.0
 11
164.37
 21
32.541
 31
0.0
  0
LINE
  8
0
 62
     0
 10
164.37
 20
32.541
 30
0.0
 11
164.37
 21
45.1901
 31
0.0
  0
LINE
  8
0
 62
     0
 10
183.42
 20
45.1901
 30
0.0
 11
198.869
 21
45.1901
 31
0.0
  0
LINE
  8
0
 62
     0
 10
198.869
 20
45.1901
 30
0.0
 11
198.869
 21
32.541
 31
0.0
  0
LINE
  8
0
 62
     0
 10
198.869
 20
32.541
 30
0.0
 11
183.42
 21
32.541
 31
0.0
  0
LINE
  8
0
 62
     0
 10
183.42
 20
32.541
 30
0.0
 11
183.42
 21
45.1901
 31
0.0
  0
LINE
  8
0
 62
     0
 10
202.47
 20
45.1901
 30
0.0
 11
217.919
 21
45.1901
 31
0.0
  0
LINE
  8
0
 62
     0
 10
217.919
 20
45.1901
 30
0.0
 11
217.919
 21
32.541
 31
0.0
  0
LINE
  8
0
 62
     0
 10
217.919
 20
32.541
 30
0.0
 11
202.47
 21
32.541
 31
0.0
  0
LINE
  8
0
 62
     0
 10
202.47
 20
32.541
 30
0.0
 11
202.47
 21
45.1901
 31
0.0
  0
LINE
  8
0
 62
     0
 10
221.52
 20
45.1901
 30
0.0
 11
236.969
 21
45.1901
 31
0.0
  0
LINE
  8
0
 62
     0
 10
236.969
 20
45.1901
 30
0.0
 11
236.969
 21
32.541
 31
0.0
  0
LINE
  8
0
 62
     0
 10
236.969
 20
32.541
 30
0.0
 11
221.52
 21
32.541
 31
0.0
  0
LINE
  8
0
 62
     0
 10
221.52
 20
32.541
 30
0.0
 11
221.52
 21
45.1901
 31
0.0
  0
LINE
  8
0
 62
     0
 10
243.253
 20
49.9844
 30
0.0
 11
242.786
 21
49.7459
 31
0.0
  0
LINE
  8
0
 62
     0
 10
242.786
 20
49.7459
 30
0.0
 11
242.415
 21
49.3751
 31
0.0
  0
LINE
  8
0
 62
     0
 10
242.415
 20
49.3751
 30
0.0
 11
242.176
 21
48.9081
 31
0.0
  0
LINE
  8
0
 62
     0
 10
242.176
 20
48.9081
 30
0.0
 11
242.095
 21
48.3912
 31
0.0
  0
LINE
  8
0
 62
     0
 10
242.095
 20
48.3912
 30
0.0
 11
242.176
 21
47.873
 31
0.0
  0
LINE
  8
0
 62
     0
 10
242.176
 20
47.873
 30
0.0
 11
242.415
 21
47.4059
 31
0.0
  0
LINE
  8
0
 62
     0
 10
242.415
 20
47.4059
 30
0.0
 11
242.786
 21
47.0352
 31
0.0
  0
LINE
  8
0
 62
     0
 10
242.786
 20
47.0352
 30
0.0
 11
243.253
 21
46.7981
 31
0.0
  0
LINE
  8
0
 62
     0
 10
243.253
 20
46.7981
 30
0.0
 11
243.771
 21
46.7155
 31
0.0
  0
LINE
  8
0
 62
     0
 10
243.771
 20
46.7155
 30
0.0
 11
244.288
 21
46.7981
 31
0.0
  0
LINE
  8
0
 62
     0
 10
244.288
 20
46.7981
 30
0.0
 11
244.755
 21
47.0352
 31
0.0
  0
LINE
  8
0
 62
     0
 10
244.755
 20
47.0352
 30
0.0
 11
245.126
 21
47.4059
 31
0.0
  0
LINE
  8
0
 62
     0
 10
245.126
 20
47.4059
 30
0.0
 11
245.364
 21
47.873
 31
0.0
  0
LINE
  8
0
 62
     0
 10
245.364
 20
47.873
 30
0.0
 11
245.445
 21
48.3912
 31
0.0
  0
LINE
  8
0
 62
     0
 10
245.445
 20
48.3912
 30
0.0
 11
245.364
 21
48.9081
 31
0.0
  0
LINE
  8
0
 62
     0
 10
245.364
 20
48.9081
 30
0.0
 11
245.126
 21
49.3751
 31
0.0
  0
LINE
  8
0
 62
     0
 10
245.126
 20
49.3751
 30
0.0
 11
244.755
 21
49.7459
 31
0.0
  0
LINE
  8
0
 62
     0
 10
244.755
 20
49.7459
 30
0.0
 11
244.288
 21
49.9844
 31
0.0
  0
LINE
  8
0
 62
     0
 10
244.288
 20
49.9844
 30
0.0
 11
243.771
 21
50.0655
 31
0.0
  0
LINE
  8
0
 62
     0
 10
243.771
 20
50.0655
 30
0.0
 11
243.253
 21
49.9844
 31
0.0
  0
LINE
  8
0
 62
     0
 10
4.65088
 20
49.9844
 30
0.0
 11
4.18511
 21
49.7459
 31
0.0
  0
LINE
  8
0
 62
     0
 10
4.18511
 20
49.7459
 30
0.0
 11
3.81303
 21
49.3751
 31
0.0
  0
LINE
  8
0
 62
     0
 10
3.81303
 20
49.3751
 30
0.0
 11
3.576
 21
48.9081
 31
0.0
  0
LINE
  8
0
 62
     0
 10
3.576
 20
48.9081
 30
0.0
 11
3.4947
 21
48.3912
 31
0.0
  0
LINE
  8
0
 62
     0
 10
3.4947
 20
48.3912
 30
0.0
 11
3.576
 21
47.873
 31
0.0
  0
LINE
  8
0
 62
     0
 10
3.576
 20
47.873
 30
0.0
 11
3.81303
 21
47.4059
 31
0.0
  0
LINE
  8
0
 62
     0
 10
3.81303
 20
47.4059
 30
0.0
 11
4.18511
 21
47.0352
 31
0.0
  0
LINE
  8
0
 62
     0
 10
4.18511
 20
47.0352
 30
0.0
 11
4.65088
 21
46.7981
 31
0.0
  0
LINE
  8
0
 62
     0
 10
4.65088
 20
46.7981
 30
0.0
 11
5.16901
 21
46.7155
 31
0.0
  0
LINE
  8
0
 62
     0
 10
5.16901
 20
46.7155
 30
0.0
 11
5.68717
 21
46.7981
 31
0.0
  0
LINE
  8
0
 62
     0
 10
5.68717
 20
46.7981
 30
0.0
 11
6.15294
 21
47.0352
 31
0.0
  0
LINE
  8
0
 62
     0
 10
6.15294
 20
47.0352
 30
0.0
 11
6.52501
 21
47.4059
 31
0.0
  0
LINE
  8
0
 62
     0
 10
6.52501
 20
47.4059
 30
0.0
 11
6.76204
 21
47.873
 31
0.0
  0
LINE
  8
0
 62
     0
 10
6.76204
 20
47.873
 30
0.0
 11
6.8447
 21
48.3912
 31
0.0
  0
LINE
  8
0
 62
     0
 10
6.8447
 20
48.3912
 30
0.0
 11
6.76204
 21
48.9081
 31
0.0
  0
LINE
  8
0
 62
     0
 10
6.76204
 20
48.9081
 30
0.0
 11
6.52501
 21
49.3751
 31
0.0
  0
LINE
  8
0
 62
     0
 10
6.52501
 20
49.3751
 30
0.0
 11
6.15294
 21
49.7459
 31
0.0
  0
LINE
  8
0
 62
     0
 10
6.15294
 20
49.7459
 30
0.0
 11
5.68717
 21
49.9844
 31
0.0
  0
LINE
  8
0
 62
     0
 10
5.68717
 20
49.9844
 30
0.0
 11
5.16901
 21
50.0655
 31
0.0
  0
LINE
  8
0
 62
     0
 10
5.16901
 20
50.0655
 30
0.0
 11
4.65088
 21
49.9844
 31
0.0
  0
LINE
  8
0
 62
     0
 10
11.9696
 20
64.2401
 30
0.0
 11
27.4188
 21
64.2401
 31
0.0
  0
LINE
  8
0
 62
     0
 10
27.4188
 20
64.2401
 30
0.0
 11
27.4188
 21
51.5909
 31
0.0
  0
LINE
  8
0
 62
     0
 10
27.4188
 20
51.5909
 30
0.0
 11
11.9696
 21
51.5909
 31
0.0
  0
LINE
  8
0
 62
     0
 10
11.9696
 20
51.5909
 30
0.0
 11
11.9696
 21
64.2401
 31
0.0
  0
LINE
  8
0
 62
     0
 10
31.0196
 20
64.2401
 30
0.0
 11
46.4689
 21
64.2401
 31
0.0
  0
LINE
  8
0
 62
     0
 10
46.4689
 20
64.2401
 30
0.0
 11
46.4689
 21
51.5909
 31
0.0
  0
LINE
  8
0
 62
     0
 10
46.4689
 20
51.5909
 30
0.0
 11
31.0196
 21
51.5909
 31
0.0
  0
LINE
  8
0
 62
     0
 10
31.0196
 20
51.5909
 30
0.0
 11
31.0196
 21
64.2401
 31
0.0
  0
LINE
  8
0
 62
     0
 10
50.0697
 20
64.2401
 30
0.0
 11
65.519
 21
64.2401
 31
0.0
  0
LINE
  8
0
 62
     0
 10
65.519
 20
64.2401
 30
0.0
 11
65.519
 21
51.5909
 31
0.0
  0
LINE
  8
0
 62
     0
 10
65.519
 20
51.5909
 30
0.0
 11
50.0697
 21
51.5909
 31
0.0
  0
LINE
  8
0
 62
     0
 10
50.0697
 20
51.5909
 30
0.0
 11
50.0697
 21
64.2401
 31
0.0
  0
LINE
  8
0
 62
     0
 10
69.1197
 20
64.2401
 30
0.0
 11
84.569
 21
64.2401
 31
0.0
  0
LINE
  8
0
 62
     0
 10
84.569
 20
64.2401
 30
0.0
 11
84.569
 21
51.5909
 31
0.0
  0
LINE
  8
0
 62
     0
 10
84.569
 20
51.5909
 30
0.0
 11
69.1197
 21
51.5909
 31
0.0
  0
LINE
  8
0
 62
     0
 10
69.1197
 20
51.5909
 30
0.0
 11
69.1197
 21
64.2401
 31
0.0
  0
LINE
  8
0
 62
     0
 10
88.1697
 20
64.2401
 30
0.0
 11
103.619
 21
64.2401
 31
0.0
  0
LINE
  8
0
 62
     0
 10
103.619
 20
64.2401
 30
0.0
 11
103.619
 21
51.5909
 31
0.0
  0
LINE
  8
0
 62
     0
 10
103.619
 20
51.5909
 30
0.0
 11
88.1697
 21
51.5909
 31
0.0
  0
LINE
  8
0
 62
     0
 10
88.1697
 20
51.5909
 30
0.0
 11
88.1697
 21
64.2401
 31
0.0
  0
LINE
  8
0
 62
     0
 10
107.22
 20
64.2401
 30
0.0
 11
122.669
 21
64.2401
 31
0.0
  0
LINE
  8
0
 62
     0
 10
122.669
 20
64.2401
 30
0.0
 11
122.669
 21
51.5909
 31
0.0
  0
LINE
  8
0
 62
     0
 10
122.669
 20
51.5909
 30
0.0
 11
107.22
 21
51.5909
 31
0.0
  0
LINE
  8
0
 62
     0
 10
107.22
 20
51.5909
 30
0.0
 11
107.22
 21
64.2401
 31
0.0
  0
LINE
  8
0
 62
     0
 10
126.27
 20
64.2401
 30
0.0
 11
141.719
 21
64.2401
 31
0.0
  0
LINE
  8
0
 62
     0
 10
141.719
 20
64.2401
 30
0.0
 11
141.719
 21
51.5909
 31
0.0
  0
LINE
  8
0
 62
     0
 10
141.719
 20
51.5909
 30
0.0
 11
126.27
 21
51.5909
 31
0.0
  0
LINE
  8
0
 62
     0
 10
126.27
 20
51.5909
 30
0.0
 11
126.27
 21
64.2401
 31
0.0
  0
LINE
  8
0
 62
     0
 10
145.32
 20
64.2401
 30
0.0
 11
160.769
 21
64.2401
 31
0.0
  0
LINE
  8
0
 62
     0
 10
160.769
 20
64.2401
 30
0.0
 11
160.769
 21
51.5909
 31
0.0
  0
LINE
  8
0
 62
     0
 10
160.769
 20
51.5909
 30
0.0
 11
145.32
 21
51.5909
 31
0.0
  0
LINE
  8
0
 62
     0
 10
145.32
 20
51.5909
 30
0.0
 11
145.32
 21
64.2401
 31
0.0
  0
LINE
  8
0
 62
     0
 10
164.37
 20
64.2401
 30
0.0
 11
179.819
 21
64.2401
 31
0.0
  0
LINE
  8
0
 62
     0
 10
179.819
 20
64.2401
 30
0.0
 11
179.819
 21
51.5909
 31
0.0
  0
LINE
  8
0
 62
     0
 10
179.819
 20
51.5909
 30
0.0
 11
164.37
 21
51.5909
 31
0.0
  0
LINE
  8
0
 62
     0
 10
164.37
 20
51.5909
 30
0.0
 11
164.37
 21
64.2401
 31
0.0
  0
LINE
  8
0
 62
     0
 10
183.42
 20
64.2401
 30
0.0
 11
198.869
 21
64.2401
 31
0.0
  0
LINE
  8
0
 62
     0
 10
198.869
 20
64.2401
 30
0.0
 11
198.869
 21
51.5909
 31
0.0
  0
LINE
  8
0
 62
     0
 10
198.869
 20
51.5909
 30
0.0
 11
183.42
 21
51.5909
 31
0.0
  0
LINE
  8
0
 62
     0
 10
183.42
 20
51.5909
 30
0.0
 11
183.42
 21
64.2401
 31
0.0
  0
LINE
  8
0
 62
     0
 10
202.47
 20
64.2401
 30
0.0
 11
217.919
 21
64.2401
 31
0.0
  0
LINE
  8
0
 62
     0
 10
217.919
 20
64.2401
 30
0.0
 11
217.919
 21
51.5909
 31
0.0
  0
LINE
  8
0
 62
     0
 10
217.919
 20
51.5909
 30
0.0
 11
202.47
 21
51.5909
 31
0.0
  0
LINE
  8
0
 62
     0
 10
202.47
 20
51.5909
 30
0.0
 11
202.47
 21
64.2401
 31
0.0
  0
LINE
  8
0
 62
     0
 10
221.52
 20
64.2401
 30
0.0
 11
236.969
 21
64.2401
 31
0.0
  0
LINE
  8
0
 62
     0
 10
236.969
 20
64.2401
 30
0.0
 11
236.969
 21
51.5909
 31
0.0
  0
LINE
  8
0
 62
     0
 10
236.969
 20
51.5909
 30
0.0
 11
221.52
 21
51.5909
 31
0.0
  0
LINE
  8
0
 62
     0
 10
221.52
 20
51.5909
 30
0.0
 11
221.52
 21
64.2401
 31
0.0
  0
LINE
  8
0
 62
     0
 10
11.9696
 20
83.2901
 30
0.0
 11
27.4188
 21
83.2901
 31
0.0
  0
LINE
  8
0
 62
     0
 10
27.4188
 20
83.2901
 30
0.0
 11
27.4188
 21
70.6409
 31
0.0
  0
LINE
  8
0
 62
     0
 10
27.4188
 20
70.6409
 30
0.0
 11
11.9696
 21
70.6409
 31
0.0
  0
LINE
  8
0
 62
     0
 10
11.9696
 20
70.6409
 30
0.0
 11
11.9696
 21
83.2901
 31
0.0
  0
LINE
  8
0
 62
     0
 10
31.0196
 20
83.2901
 30
0.0
 11
46.4689
 21
83.2901
 31
0.0
  0
LINE
  8
0
 62
     0
 10
46.4689
 20
83.2901
 30
0.0
 11
46.4689
 21
70.6409
 31
0.0
  0
LINE
  8
0
 62
     0
 10
46.4689
 20
70.6409
 30
0.0
 11
31.0196
 21
70.6409
 31
0.0
  0
LINE
  8
0
 62
     0
 10
31.0196
 20
70.6409
 30
0.0
 11
31.0196
 21
83.2901
 31
0.0
  0
LINE
  8
0
 62
     0
 10
50.0697
 20
83.2901
 30
0.0
 11
65.519
 21
83.2901
 31
0.0
  0
LINE
  8
0
 62
     0
 10
65.519
 20
83.2901
 30
0.0
 11
65.519
 21
70.6409
 31
0.0
  0
LINE
  8
0
 62
     0
 10
65.519
 20
70.6409
 30
0.0
 11
50.0697
 21
70.6409
 31
0.0
  0
LINE
  8
0
 62
     0
 10
50.0697
 20
70.6409
 30
0.0
 11
50.0697
 21
83.2901
 31
0.0
  0
LINE
  8
0
 62
     0
 10
69.1197
 20
83.2901
 30
0.0
 11
84.569
 21
83.2901
 31
0.0
  0
LINE
  8
0
 62
     0
 10
84.569
 20
83.2901
 30
0.0
 11
84.569
 21
70.6409
 31
0.0
  0
LINE
  8
0
 62
     0
 10
84.569
 20
70.6409
 30
0.0
 11
69.1197
 21
70.6409
 31
0.0
  0
LINE
  8
0
 62
     0
 10
69.1197
 20
70.6409
 30
0.0
 11
69.1197
 21
83.2901
 31
0.0
  0
LINE
  8
0
 62
     0
 10
88.1697
 20
83.2901
 30
0.0
 11
103.619
 21
83.2901
 31
0.0
  0
LINE
  8
0
 62
     0
 10
103.619
 20
83.2901
 30
0.0
 11
103.619
 21
70.6409
 31
0.0
  0
LINE
  8
0
 62
     0
 10
103.619
 20
70.6409
 30
0.0
 11
88.1697
 21
70.6409
 31
0.0
  0
LINE
  8
0
 62
     0
 10
88.1697
 20
70.6409
 30
0.0
 11
88.1697
 21
83.2901
 31
0.0
  0
LINE
  8
0
 62
     0
 10
107.22
 20
83.2901
 30
0.0
 11
122.669
 21
83.2901
 31
0.0
  0
LINE
  8
0
 62
     0
 10
122.669
 20
83.2901
 30
0.0
 11
122.669
 21
70.6409
 31
0.0
  0
LINE
  8
0
 62
     0
 10
122.669
 20
70.6409
 30
0.0
 11
107.22
 21
70.6409
 31
0.0
  0
LINE
  8
0
 62
     0
 10
107.22
 20
70.6409
 30
0.0
 11
107.22
 21
83.2901
 31
0.0
  0
LINE
  8
0
 62
     0
 10
126.27
 20
83.2901
 30
0.0
 11
141.719
 21
83.2901
 31
0.0
  0
LINE
  8
0
 62
     0
 10
141.719
 20
83.2901
 30
0.0
 11
141.719
 21
70.6409
 31
0.0
  0
LINE
  8
0
 62
     0
 10
141.719
 20
70.6409
 30
0.0
 11
126.27
 21
70.6409
 31
0.0
  0
LINE
  8
0
 62
     0
 10
126.27
 20
70.6409
 30
0.0
 11
126.27
 21
83.2901
 31
0.0
  0
LINE
  8
0
 62
     0
 10
145.32
 20
83.2901
 30
0.0
 11
160.769
 21
83.2901
 31
0.0
  0
LINE
  8
0
 62
     0
 10
160.769
 20
83.2901
 30
0.0
 11
160.769
 21
70.6409
 31
0.0
  0
LINE
  8
0
 62
     0
 10
160.769
 20
70.6409
 30
0.0
 11
145.32
 21
70.6409
 31
0.0
  0
LINE
  8
0
 62
     0
 10
145.32
 20
70.6409
 30
0.0
 11
145.32
 21
83.2901
 31
0.0
  0
LINE
  8
0
 62
     0
 10
164.37
 20
83.2901
 30
0.0
 11
179.819
 21
83.2901
 31
0.0
  0
LINE
  8
0
 62
     0
 10
179.819
 20
83.2901
 30
0.0
 11
179.819
 21
70.6409
 31
0.0
  0
LINE
  8
0
 62
     0
 10
179.819
 20
70.6409
 30
0.0
 11
164.37
 21
70.6409
 31
0.0
  0
LINE
  8
0
 62
     0
 10
164.37
 20
70.6409
 30
0.0
 11
164.37
 21
83.2901
 31
0.0
  0
LINE
  8
0
 62
     0
 10
183.42
 20
83.2901
 30
0.0
 11
198.869
 21
83.2901
 31
0.0
  0
LINE
  8
0
 62
     0
 10
198.869
 20
83.2901
 30
0.0
 11
198.869
 21
70.6409
 31
0.0
  0
LINE
  8
0
 62
     0
 10
198.869
 20
70.6409
 30
0.0
 11
183.42
 21
70.6409
 31
0.0
  0
LINE
  8
0
 62
     0
 10
183.42
 20
70.6409
 30
0.0
 11
183.42
 21
83.2901
 31
0.0
  0
LINE
  8
0
 62
     0
 10
202.47
 20
83.2901
 30
0.0
 11
217.919
 21
83.2901
 31
0.0
  0
LINE
  8
0
 62
     0
 10
217.919
 20
83.2901
 30
0.0
 11
217.919
 21
70.6409
 31
0.0
  0
LINE
  8
0
 62
     0
 10
217.919
 20
70.6409
 30
0.0
 11
202.47
 21
70.6409
 31
0.0
  0
LINE
  8
0
 62
     0
 10
202.47
 20
70.6409
 30
0.0
 11
202.47
 21
83.2901
 31
0.0
  0
LINE
  8
0
 62
     0
 10
221.52
 20
83.2901
 30
0.0
 11
236.969
 21
83.2901
 31
0.0
  0
LINE
  8
0
 62
     0
 10
236.969
 20
83.2901
 30
0.0
 11
236.969
 21
70.6409
 31
0.0
  0
LINE
  8
0
 62
     0
 10
236.969
 20
70.6409
 30
0.0
 11
221.52
 21
70.6409
 31
0.0
  0
LINE
  8
0
 62
     0
 10
221.52
 20
70.6409
 30
0.0
 11
221.52
 21
83.2901
 31
0.0
  0
LINE
  8
0
 62
     0
 10
84.1858
 20
93.085
 30
0.0
 11
83.7188
 21
92.8469
 31
0.0
  0
LINE
  8
0
 62
     0
 10
83.7188
 20
92.8469
 30
0.0
 11
83.348
 21
92.4761
 31
0.0
  0
LINE
  8
0
 62
     0
 10
83.348
 20
92.4761
 30
0.0
 11
83.1095
 21
92.009
 31
0.0
  0
LINE
  8
0
 62
     0
 10
83.1095
 20
92.009
 30
0.0
 11
83.027
 21
91.4908
 31
0.0
  0
LINE
  8
0
 62
     0
 10
83.027
 20
91.4908
 30
0.0
 11
83.1095
 21
90.974
 31
0.0
  0
LINE
  8
0
 62
     0
 10
83.1095
 20
90.974
 30
0.0
 11
83.348
 21
90.5069
 31
0.0
  0
LINE
  8
0
 62
     0
 10
83.348
 20
90.5069
 30
0.0
 11
83.7188
 21
90.1361
 31
0.0
  0
LINE
  8
0
 62
     0
 10
83.7188
 20
90.1361
 30
0.0
 11
84.1858
 21
89.8977
 31
0.0
  0
LINE
  8
0
 62
     0
 10
84.1858
 20
89.8977
 30
0.0
 11
84.7027
 21
89.8151
 31
0.0
  0
LINE
  8
0
 62
     0
 10
84.7027
 20
89.8151
 30
0.0
 11
85.2205
 21
89.8977
 31
0.0
  0
LINE
  8
0
 62
     0
 10
85.2205
 20
89.8977
 30
0.0
 11
85.688
 21
90.1361
 31
0.0
  0
LINE
  8
0
 62
     0
 10
85.688
 20
90.1361
 30
0.0
 11
86.057
 21
90.5069
 31
0.0
  0
LINE
  8
0
 62
     0
 10
86.057
 20
90.5069
 30
0.0
 11
86.2954
 21
90.974
 31
0.0
  0
LINE
  8
0
 62
     0
 10
86.2954
 20
90.974
 30
0.0
 11
86.3769
 21
91.4908
 31
0.0
  0
LINE
  8
0
 62
     0
 10
86.3769
 20
91.4908
 30
0.0
 11
86.2954
 21
92.009
 31
0.0
  0
LINE
  8
0
 62
     0
 10
86.2954
 20
92.009
 30
0.0
 11
86.057
 21
92.4761
 31
0.0
  0
LINE
  8
0
 62
     0
 10
86.057
 20
92.4761
 30
0.0
 11
85.688
 21
92.8469
 31
0.0
  0
LINE
  8
0
 62
     0
 10
85.688
 20
92.8469
 30
0.0
 11
85.2205
 21
93.085
 31
0.0
  0
LINE
  8
0
 62
     0
 10
85.2205
 20
93.085
 30
0.0
 11
84.7027
 21
93.1665
 31
0.0
  0
LINE
  8
0
 62
     0
 10
84.7027
 20
93.1665
 30
0.0
 11
84.1858
 21
93.085
 31
0.0
  0
LINE
  8
0
 62
     0
 10
163.718
 20
93.085
 30
0.0
 11
163.252
 21
92.8469
 31
0.0
  0
LINE
  8
0
 62
     0
 10
163.252
 20
92.8469
 30
0.0
 11
162.881
 21
92.4761
 31
0.0
  0
LINE
  8
0
 62
     0
 10
162.881
 20
92.4761
 30
0.0
 11
162.643
 21
92.009
 31
0.0
  0
LINE
  8
0
 62
     0
 10
162.643
 20
92.009
 30
0.0
 11
162.562
 21
91.4908
 31
0.0
  0
LINE
  8
0
 62
     0
 10
162.562
 20
91.4908
 30
0.0
 11
162.643
 21
90.974
 31
0.0
  0
LINE
  8
0
 62
     0
 10
162.643
 20
90.974
 30
0.0
 11
162.881
 21
90.5069
 31
0.0
  0
LINE
  8
0
 62
     0
 10
162.881
 20
90.5069
 30
0.0
 11
163.252
 21
90.1361
 31
0.0
  0
LINE
  8
0
 62
     0
 10
163.252
 20
90.1361
 30
0.0
 11
163.718
 21
89.8977
 31
0.0
  0
LINE
  8
0
 62
     0
 10
163.718
 20
89.8977
 30
0.0
 11
164.236
 21
89.8151
 31
0.0
  0
LINE
  8
0
 62
     0
 10
164.236
 20
89.8151
 30
0.0
 11
164.754
 21
89.8977
 31
0.0
  0
LINE
  8
0
 62
     0
 10
164.754
 20
89.8977
 30
0.0
 11
165.22
 21
90.1361
 31
0.0
  0
LINE
  8
0
 62
     0
 10
165.22
 20
90.1361
 30
0.0
 11
165.592
 21
90.5069
 31
0.0
  0
LINE
  8
0
 62
     0
 10
165.592
 20
90.5069
 30
0.0
 11
165.829
 21
90.974
 31
0.0
  0
LINE
  8
0
 62
     0
 10
165.829
 20
90.974
 30
0.0
 11
165.912
 21
91.4908
 31
0.0
  0
LINE
  8
0
 62
     0
 10
165.912
 20
91.4908
 30
0.0
 11
165.829
 21
92.009
 31
0.0
  0
LINE
  8
0
 62
     0
 10
165.829
 20
92.009
 30
0.0
 11
165.592
 21
92.4761
 31
0.0
  0
LINE
  8
0
 62
     0
 10
165.592
 20
92.4761
 30
0.0
 11
165.22
 21
92.8469
 31
0.0
  0
LINE
  8
0
 62
     0
 10
165.22
 20
92.8469
 30
0.0
 11
164.754
 21
93.085
 31
0.0
  0
LINE
  8
0
 62
     0
 10
164.754
 20
93.085
 30
0.0
 11
164.236
 21
93.1665
 31
0.0
  0
LINE
  8
0
 62
     0
 10
164.236
 20
93.1665
 30
0.0
 11
163.718
 21
93.085
 31
0.0
  0
LINE
  8
0
 62
     0
 10
243.253
 20
93.085
 30
0.0
 11
242.786
 21
92.8469
 31
0.0
  0
LINE
  8
0
 62
     0
 10
242.786
 20
92.8469
 30
0.0
 11
242.415
 21
92.4761
 31
0.0
  0
LINE
  8
0
 62
     0
 10
242.415
 20
92.4761
 30
0.0
 11
242.176
 21
92.009
 31
0.0
  0
LINE
  8
0
 62
     0
 10
242.176
 20
92.009
 30
0.0
 11
242.095
 21
91.4908
 31
0.0
  0
LINE
  8
0
 62
     0
 10
242.095
 20
91.4908
 30
0.0
 11
242.176
 21
90.974
 31
0.0
  0
LINE
  8
0
 62
     0
 10
242.176
 20
90.974
 30
0.0
 11
242.415
 21
90.5069
 31
0.0
  0
LINE
  8
0
 62
     0
 10
242.415
 20
90.5069
 30
0.0
 11
242.786
 21
90.1361
 31
0.0
  0
LINE
  8
0
 62
     0
 10
242.786
 20
90.1361
 30
0.0
 11
243.253
 21
89.8977
 31
0.0
  0
LINE
  8
0
 62
     0
 10
243.253
 20
89.8977
 30
0.0
 11
243.771
 21
89.8151
 31
0.0
  0
LINE
  8
0
 62
     0
 10
243.771
 20
89.8151
 30
0.0
 11
244.288
 21
89.8977
 31
0.0
  0
LINE
  8
0
 62
     0
 10
244.288
 20
89.8977
 30
0.0
 11
244.755
 21
90.1361
 31
0.0
  0
LINE
  8
0
 62
     0
 10
244.755
 20
90.1361
 30
0.0
 11
245.126
 21
90.5069
 31
0.0
  0
LINE
  8
0
 62
     0
 10
245.126
 20
90.5069
 30
0.0
 11
245.364
 21
90.974
 31
0.0
  0
LINE
  8
0
 62
     0
 10
245.364
 20
90.974
 30
0.0
 11
245.445
 21
91.4908
 31
0.0
  0
LINE
  8
0
 62
     0
 10
245.445
 20
91.4908
 30
0.0
 11
245.364
 21
92.009
 31
0.0
  0
LINE
  8
0
 62
     0
 10
245.364
 20
92.009
 30
0.0
 11
245.126
 21
92.4761
 31
0.0
  0
LINE
  8
0
 62
     0
 10
245.126
 20
92.4761
 30
0.0
 11
244.755
 21
92.8469
 31
0.0
  0
LINE
  8
0
 62
     0
 10
244.755
 20
92.8469
 30
0.0
 11
244.288
 21
93.085
 31
0.0
  0
LINE
  8
0
 62
     0
 10
244.288
 20
93.085
 30
0.0
 11
243.771
 21
93.1665
 31
0.0
  0
LINE
  8
0
 62
     0
 10
243.771
 20
93.1665
 30
0.0
 11
243.253
 21
93.085
 31
0.0
  0
LINE
  8
0
 62
     0
 10
4.65088
 20
93.085
 30
0.0
 11
4.18511
 21
92.8469
 31
0.0
  0
LINE
  8
0
 62
     0
 10
4.18511
 20
92.8469
 30
0.0
 11
3.81303
 21
92.4761
 31
0.0
  0
LINE
  8
0
 62
     0
 10
3.81303
 20
92.4761
 30
0.0
 11
3.576
 21
92.009
 31
0.0
  0
LINE
  8
0
 62
     0
 10
3.576
 20
92.009
 30
0.0
 11
3.4947
 21
91.4908
 31
0.0
  0
LINE
  8
0
 62
     0
 10
3.4947
 20
91.4908
 30
0.0
 11
3.576
 21
90.974
 31
0.0
  0
LINE
  8
0
 62
     0
 10
3.576
 20
90.974
 30
0.0
 11
3.81303
 21
90.5069
 31
0.0
  0
LINE
  8
0
 62
     0
 10
3.81303
 20
90.5069
 30
0.0
 11
4.18511
 21
90.1361
 31
0.0
  0
LINE
  8
0
 62
     0
 10
4.18511
 20
90.1361
 30
0.0
 11
4.65088
 21
89.8977
 31
0.0
  0
LINE
  8
0
 62
     0
 10
4.65088
 20
89.8977
 30
0.0
 11
5.16901
 21
89.8151
 31
0.0
  0
LINE
  8
0
 62
     0
 10
5.16901
 20
89.8151
 30
0.0
 11
5.68717
 21
89.8977
 31
0.0
  0
LINE
  8
0
 62
     0
 10
5.68717
 20
89.8977
 30
0.0
 11
6.15294
 21
90.1361
 31
0.0
  0
LINE
  8
0
 62
     0
 10
6.15294
 20
90.1361
 30
0.0
 11
6.52501
 21
90.5069
 31
0.0
  0
LINE
  8
0
 62
     0
 10
6.52501
 20
90.5069
 30
0.0
 11
6.76204
 21
90.974
 31
0.0
  0
LINE
  8
0
 62
     0
 10
6.76204
 20
90.974
 30
0.0
 11
6.8447
 21
91.4908
 31
0.0
  0
LINE
  8
0
 62
     0
 10
6.8447
 20
91.4908
 30
0.0
 11
6.76204
 21
92.009
 31
0.0
  0
LINE
  8
0
 62
     0
 10
6.76204
 20
92.009
 30
0.0
 11
6.52501
 21
92.4761
 31
0.0
  0
LINE
  8
0
 62
     0
 10
6.52501
 20
92.4761
 30
0.0
 11
6.15294
 21
92.8469
 31
0.0
  0
LINE
  8
0
 62
     0
 10
6.15294
 20
92.8469
 30
0.0
 11
5.68717
 21
93.085
 31
0.0
  0
LINE
  8
0
 62
     0
 10
5.68717
 20
93.085
 30
0.0
 11
5.16901
 21
93.1651
 31
0.0
  0
LINE
  8
0
 62
     0
 10
5.16901
 20
93.1651
 30
0.0
 11
4.65088
 21
93.085
 31
0.0
  0
ENDSEC
  0
EOF
